<?xml version="1.0" encoding="UTF-8" standalone="no"?>
<svg
   color-interpolation-filters="sRGB"
   style="margin:auto"
   version="1.0"
   viewBox="0 0 340 250"
   id="svg22"
   xmlns="http://www.w3.org/2000/svg"
   xmlns:svg="http://www.w3.org/2000/svg">
  <defs
     id="defs22" />
  <rect
     class="background"
     width="100%"
     height="100%"
     fill="#fff"
     id="rect1" />
  <rect
     class="watermarklayer"
     width="100%"
     height="100%"
     fill="url(#watermark)"
     id="rect2" />
  <g
     class="iconmbgsvg"
     transform="translate(95 45.684)"
     id="g13">
    <g
       fill="#12776f"
       mask="url(#2e7a7a7e-cf1a-4ea4-a3d9-fbea6707fd3e)"
       id="g12">
      <rect
         class="image-rect"
         width="150"
         height="158.63"
         fill="#12776f"
         fill-opacity="0"
         stroke-width="2"
         id="rect3" />
      <g
         class="image-svg-svg primary"
         transform="scale(1.5)"
         fill="#333333"
         id="g5">
        <path
           d="m80.235 19.849c-10.296-1.919-19.206-6.332-24.868-9.695-1.623-0.965-3.479-1.475-5.367-1.475s-3.744 0.51-5.367 1.474c-5.662 3.364-14.572 7.776-24.868 9.695-5.004 0.933-8.637 5.283-8.637 10.343v39.616c0 5.06 3.632 9.41 8.637 10.343 10.296 1.919 19.206 6.332 24.867 9.695 1.624 0.965 3.48 1.474 5.367 1.474 1.888 0 3.744-0.51 5.367-1.474 5.662-3.364 14.572-7.776 24.868-9.695 5.004-0.933 8.636-5.283 8.636-10.343v-39.615c1e-3 -5.06-3.631-9.41-8.635-10.343zm8.149 49.959c0 4.826-3.465 8.974-8.239 9.864-10.366 1.932-19.332 6.371-25.027 9.755-1.548 0.92-3.318 1.407-5.118 1.407s-3.57-0.486-5.119-1.406c-5.695-3.384-14.661-7.823-25.027-9.755-4.774-0.89-8.239-5.039-8.239-9.864v-39.617c0-4.826 3.465-8.974 8.239-9.864 10.366-1.932 19.332-6.371 25.027-9.755 1.549-0.92 3.319-1.407 5.119-1.407s3.57 0.486 5.119 1.406c5.695 3.384 14.661 7.823 25.027 9.755 4.774 0.89 8.239 5.039 8.239 9.864v39.617z"
           fill="none"
           id="path3" />
        <path
           d="m80.909 16.232c-9.675-1.803-18.072-5.92-23.662-9.241-4.467-2.654-10.026-2.654-14.493 0-5.59 3.321-13.987 7.438-23.663 9.241-6.738 1.256-11.642 7.106-11.642 13.96v39.616c0 6.854 4.904 12.704 11.642 13.96 9.675 1.803 18.072 5.92 23.663 9.241 4.467 2.654 10.026 2.654 14.493 0 5.59-3.321 13.987-7.438 23.662-9.241 6.738-1.256 11.642-7.106 11.642-13.96v-39.616c0-6.854-4.904-12.704-11.642-13.96zm7.962 53.576c0 5.06-3.632 9.41-8.636 10.343-10.296 1.919-19.206 6.332-24.868 9.695-1.623 0.965-3.479 1.474-5.367 1.474s-3.744-0.51-5.367-1.474c-5.661-3.364-14.572-7.776-24.867-9.695-5.004-0.933-8.637-5.283-8.637-10.343v-39.616c0-5.06 3.632-9.41 8.637-10.343 10.296-1.919 19.206-6.332 24.868-9.695 1.622-0.965 3.478-1.475 5.366-1.475s3.744 0.51 5.367 1.474c5.661 3.364 14.571 7.776 24.868 9.695 5.004 0.933 8.636 5.283 8.636 10.343v39.617z"
           fill="#333"
           id="path4" />
        <path
           d="m80.146 20.328c-10.366-1.932-19.332-6.371-25.027-9.755-1.549-0.92-3.319-1.407-5.119-1.407s-3.57 0.486-5.119 1.406c-5.696 3.384-14.661 7.823-25.027 9.755-4.774 0.89-8.239 5.039-8.239 9.864v39.616c0 4.826 3.465 8.974 8.239 9.864 10.366 1.932 19.332 6.371 25.027 9.755 1.548 0.92 3.318 1.406 5.119 1.406s3.57-0.486 5.118-1.406c5.696-3.384 14.661-7.823 25.027-9.755 4.774-0.89 8.239-5.039 8.239-9.864v-39.615c0-4.826-3.465-8.974-8.238-9.864z"
           fill="#333"
           id="path5" />
      </g>
      <g
         transform="translate(20.004 54.325)"
         id="g11">
        <g
           class="tp-name"
           transform="translate(0)"
           id="g7">
          <g
             transform="scale(1)"
             id="g6">
            <path
               transform="translate(-2.178 32.23)"
               d="m8.57 3.12q0.56 0.11 1.56-0.21 1-0.31 1.37-0.72 0.15-0.19 0.17-0.48 0.02-0.3-0.05-1.93-0.15-3.16-0.15-7.26t0.15-4.36q0.14-0.33 0.51-0.63 0.38-0.3 2.01-1.26 2.34-1.37 2.34-1.6 0-0.07-0.11-0.18-0.08-0.08-1.9 0.52-2.11 0.67-2.45 0.59-0.52-0.07-0.55-1.48 0-0.23 0-2.3 0-3.2 0.22-3.6 0.19-0.37 1.19-0.41 0.22 0 0.29 0 0.78-0.04 1.25 0.02 0.46 0.05 0.74 0.24 0.28 0.18 0.3 0.46 0.01 0.28-0.21 0.82t-0.63 1.2q-0.41 0.67-1.11 1.71-0.45 0.67-0.48 0.8-0.04 0.13 0.11 0.28 0.4 0.22 2.26-1.63 1.86-1.86 3.19-3.86 0.6-0.86 0.93-1.1t0.85-0.24q0.71 0 0.84 0.46 0.13 0.47-0.21 1.77-0.96 3.82-2.89 7.49-1.93 3.68-4.38 6.31-0.63 0.67-0.41 0.85 0.19 0.15 1.34-0.7 6.57-5.27 9.65-14.25 0.44-1.3 0.78-1.67 0.33-0.37 0.85-0.19 0.41 0.15 0.48 0.65 0.08 0.5-0.15 1.84-1.07 6.35-3.78 11.71t-6.76 9.11q-0.96 0.93-0.48 0.93 0.22 0.03 0.82-0.34 10.46-6.94 13.65-21.45 0.52-2.41 1.01-2.45 0.22 0 0.48 0.41 0.33 0.52-0.24 7.59-0.58 7.07-1.21 10.15-0.26 1.15-0.43 1.74-0.16 0.6-0.51 1.15-0.36 0.56-0.69 0.75-0.34 0.18-1.13 0.29-0.8 0.12-1.62 0.08-0.81-0.04-2.34-0.19-1.29-0.11-1.54-0.09-0.24 0.02-0.24 0.24 0 0.19 0.34 0.3 2.45 0.59 3.23 1.19 0.78 0.59 1.04 2.11 0.07 0.59 0.96 0.63t2.04-0.48 1.93-1.34q2.93-3.04 3.75-20.3 0.11-2.74 0.22-3.21 0.11-0.46 0.78-0.76 0.71-0.33 0.65-0.59t-0.91-1.11q-1.48-1.49-1.97-1.62-0.48-0.13-1.33 0.8-0.74 0.78-0.97 0.89-0.52 0.22-4 0.22-0.78 0-1.38 0-0.33 0-0.93 0-3.78-0.03-4.11-0.29-0.26-0.26 0.18-1.19 0.08-0.19 0.11-0.26 0.26-0.48 0.74-1.82 0.67-1.71 1.19-1.97 0.86-0.37-0.44-0.92-0.67-0.3-2.04-0.75-0.23-0.07-0.52-0.16-0.3-0.1-0.5-0.15-0.21-0.06-0.28-0.09-0.34-0.12-0.43 0-0.09 0.11-0.13 0.85-0.19 1.93-0.76 4.3-0.58 2.38-0.98 2.9-0.3 0.41-0.69 0.26t-1.24-1.04q-0.82-0.82-0.99-0.82-0.16 0-0.65 0.78-0.81 1.26-1.37 1.23-0.48-0.04-0.37-2.97t0.59-3.42q0.6-0.55-0.18-0.96-0.6-0.3-2.64-0.89-0.81-0.22-0.92-0.11-0.12 0.11-0.12 1.33 0 1.52-0.29 1.67-0.3 0.15-2.41-0.26-1.6-0.33-1.79-0.26-0.18 0.08-0.11 0.93 0.41 4.83-1.15 10.95-0.37 1.59-0.15 1.67 0.04 0 0.19 0 0.26-0.04 1.04-1.45t1.45-3.04q0.44-1.08 0.76-1.37 0.31-0.3 1.13-0.3 0.89 0 1.26 0.48 0.15 0.19 0.2 3.73 0.06 3.54-0.09 4.18-0.07 0.33-0.2 0.51-0.13 0.19-0.82 0.47t-1.61 0.54q-0.93 0.26-3.08 0.81-0.3 0.08-0.3 0.26 0 0.26 0.63 1.93 0.67 1.67 0.82 1.82t0.66-0.37q0.64-0.71 1.93-1.37 1.3-0.67 1.64-0.52 0.78 0.37 0.18 10.17-0.11 1.85-0.03 2.2 0.07 0.36 0.55 0.47zm-0.74-26.57q-0.26 0.18-0.69 0.18-0.42 0-0.68-0.18-0.52-0.41 0.07-2.43 0.6-2.03 1.23-1.95 0.52 0.07 0.55 2.06 0.04 1.98-0.48 2.32zm45.57 25.94q0.07 0.59 0.22 0.65 0.15 0.05 1.12-0.13 3.04-0.52 3.82-2.08 0.37-0.71 0.41-2.23 0.03-1.52 0.07-13.25 0.04-11.06 0.09-12.95 0.06-1.89 0.43-2.08 0.11-0.03 0.15-0.07 0.67-0.41-0.59-0.89-0.78-0.3-2.68-0.78-1.33-0.33-1.37-0.15-0.04 0.08 0 0.22 0.33 2.16 0.43 15.53 0.09 13.38-0.21 13.9-0.29 0.48-0.91 0.54-0.61 0.06-3.47-0.09-2.7-0.19-2.74-0.08-0.19 0.26 0.41 0.45 0.22 0.04 0.55 0.11 1.97 0.37 2.97 1.17t1.3 2.21zm-13.4-8.17q0.15 0.11 0.26 0.06 0.12-0.06 0.75-0.5 5.15-3.9 9.09-11.69 0.67-1.3 0.91-1.67t0.57-0.52q0.74-0.34-0.04-0.74-0.4-0.19-1.26-0.49-0.48-0.18-1.96-0.85-1.3-0.56-1.41-0.41-0.08 0.08-0.12 0.56-0.29 3.38-2.07 7.72t-4.16 7.53q-0.15 0.19-0.33 0.45-0.34 0.44-0.23 0.55zm31.14-0.85q1.15 0.37 1.8-0.8t0.35-3.02q-0.48-2.75-2.65-5.48-2.17-2.72-5.7-4.99-2.26-1.48-2.23-1.07 0 0.22 0.6 1 5.19 6.71 6.64 13.47 0.15 0.55 1.19 0.89zm24.68 8.2q2.52 0.15 7.83 0.04 5.3-0.11 6.64-0.37 1.41-0.26 1.78-1.14 0.37-0.87-0.63-1.54-0.56-0.4-0.71-1.07-0.14-0.67-0.14-3.08 0-0.97-0.12-1.34-0.11-0.37-0.29-0.05-0.19 0.31-0.41 1.24-0.78 2.86-1 3.3-0.52 0.89-2.15 1-0.67 0.08-4.64 0.08-4.2 0-4.9-0.04-0.71-0.04-1-0.26-0.34-0.3-0.37-0.89-0.12-0.85-0.12-6.2 0-5.34 0-5.49 0.15-1.33 0.93-1.59 0.41-0.12 3.19-0.08 0.37 0 0.71 0 0.29 0 0.81 0 3.08 0 3.57 0.19 0.48 0.18 0.41 1.3 0 0.18 0 0.26-0.08 1.18 0.61 1.35 0.68 0.17 2.28-0.61 0.67-0.3 0.74-0.54 0.08-0.24 0-1.5-0.18-3.64-0.2-7.24t0.16-3.97q0.08-0.15 0.34-0.39t0.33-0.24q0.08 0 0.45-0.26t0.41-0.33q0.07-0.26-0.93-1.17t-2.12-1.66q-0.44-0.29-0.66-0.22-0.23 0.08-0.78 0.74-0.89 1.08-1.41 1.23-0.45 0.15-6.74 0.05-6.29-0.09-7.18-0.24-0.3-0.03-0.32 0.1-0.01 0.13 0.28 0.65 0.41 0.85 0.6 0.94 0.18 0.09 1.3-0.05 2.78-0.34 7.68-0.34 0.66 0 1.59 0t1.26-0.03q0.34-0.04 0.89 0.05 0.56 0.09 0.67 0.09t0.41 0.28 0.28 0.43 0.07 0.72q0.1 0.58 0.06 0.93t-0.04 1.3 0 1.65q0 3.97-0.07 4.34-0.15 0.89-1 1.08-0.49 0.04-3.75 0.04-3.56 0-4.14-0.08-0.57-0.07-2.39-0.82-0.45-0.18-0.93-0.39-0.48-0.2-0.74-0.31l-0.26-0.07q-0.11 0 0.11 2.22 0 0.04 0 0.11 0.11 0.97 0.15 4.85 0.03 3.87 0.07 7.34t0.11 3.73q0.26 0.97 1.04 1.41 0.78 0.45 2.38 0.56zm-11.92-0.19q0.15 0.23 0.38-0.07 0.22-0.3 0.77-1.15 0.49-0.67 1.12-1.41 5.42-6.12 4.82-6.23-0.26-0.08-1.45 0.7-1.96 1.3-2.22 1.37-0.6 0.19-0.74-0.7-0.12-0.71-0.15-6.38 0-6.65 0.11-7.13 0.11-0.33 0.52-0.52 0.07-0.04 0.11-0.07 0.63-0.34 0.45-0.76-0.19-0.43-1.41-1.54-1.01-0.93-1.3-0.95-0.3-0.02-0.89 0.76-0.75 0.93-1.54 1.08-0.8 0.14-3.33-0.08-1-0.07-1.09 0-0.09 0.08 0.28 0.82 0.33 0.67 0.5 0.78t0.5-0.04q1.37-0.44 2.45-0.33t1.22 0.7q0.15 0.45 0.12 8.07-0.04 7.63-0.19 7.93-0.26 0.59-0.85 1.04-0.38 0.25-0.38 0.4 0 0.11 1.03 1.86 1.02 1.74 1.16 1.85zm2.08-25.82q1 0.48 1.8-0.06t0.8-1.69q0-1.74-1.8-3.3t-4.73-2.38q-0.78-0.22-0.91-0.07t0.35 0.71q1.08 1.18 2.21 2.91 1.13 1.72 1.65 3.06 0.3 0.67 0.48 0.74 0.08 0.04 0.15 0.08z"
               id="path6" />
          </g>
        </g>
        <g
           class="tp-slogan"
           transform="translate(-6.654 44.381)"
           fill="#f9c7cf"
           fill-rule="evenodd"
           id="g10">
          <rect
             width="0"
             height="0"
             id="rect7" />
          <rect
             x="126.3"
             width="0"
             height="0"
             id="rect8" />
          <g
             transform="translate(0)"
             id="g9">
            <g
               transform="scale(1)"
               id="g8">
              <path
                 d="m 52.556053,10.103059 -0.08096,1.29534 1.619175,0.161918 a 8.9864248,8.9864248 0 0 0 1.3763,0 h 0.08096 v 0.890547 l -0.08096,-0.08096 A 11.415188,11.415188 0 0 0 54.013313,12.20799 l -1.619175,-0.161918 -0.08096,1.781093 1.214381,0.08096 q 0.809588,0.08096 1.295341,0.08096 h 0.08096 l -0.08096,0.809588 h -0.08096 a 8.0149193,8.0149193 0 0 0 -1.214374,-0.161917 l -1.295341,-0.08096 -0.161917,2.023969 2.104928,0.161917 a 9.8769713,9.8769713 0 0 0 1.295341,0.08096 h 0.08096 l -0.08096,0.809588 h -0.08096 a 8.8245071,8.8245071 0 0 0 -1.295352,-0.161915 l -5.424238,-0.485753 q -0.647671,-0.08096 -1.29534,-0.08096 h -0.08096 v -0.809587 h 0.161917 a 10.443683,10.443683 0 0 0 1.29534,0.242877 l 2.509723,0.161917 0.161918,-2.023969 -1.133424,-0.08096 q -0.728629,-0.08096 -1.29534,-0.08096 h -0.08096 l 0.08096,-0.890547 0.08096,0.08096 a 10.119848,10.119848 0 0 0 1.214385,0.161917 l 1.214382,0.08096 0.161918,-1.700134 -2.266846,-0.242876 a 65.981407,65.981407 0 0 1 -1.052464,1.376299 3.6431451,3.6431451 0 0 0 -0.566712,-0.242876 l -0.242876,-0.08096 a 6.4767025,6.4767025 0 0 0 1.943011,-3.31931 2.0239695,2.0239695 0 0 1 1.133423,0.485753 q 0,0 -0.161918,0.161917 a 3.4812276,3.4812276 0 0 0 -0.728629,0.971505 l 1.943011,0.161918 0.161917,-1.3762993 a 4.6956093,4.6956093 0 0 0 0,-0.8905466 v -0.080959 q 0.971506,0.080959 1.133423,0.2428762 a 0.24287634,0.24287634 0 0 1 -0.08096,0.080959 1.3762993,1.3762993 0 0 0 -0.323835,0.8095876 z m 24.368593,0 1.376298,-0.2428766 a 16.59655,16.59655 0 0 0 1.295341,-0.1619176 1082.4189,1082.4189 0 0 1 0.242877,3.9669802 113.58517,113.58517 0 0 1 0.08096,1.862052 1.7810932,1.7810932 0 0 1 -1.943011,1.376299 2.1858871,2.1858871 0 0 0 -0.566711,-0.890547 4.6146506,4.6146506 0 0 0 0.809587,0 1.862052,1.862052 0 0 0 0.728629,-0.242875 q 0.161918,0 0.08096,-1.943011 a 58.452241,58.452241 0 0 0 -0.16192,-1.457258 207.4164,207.4164 0 0 0 -0.08096,-1.943011 l -2.104931,0.242876 a 74.239202,74.239202 0 0 1 -0.64767,1.781094 Q 75.629305,12.288946 75.30547,12.288946 l 0.404794,3.31931 a 11.496147,11.496147 0 0 0 0.161918,1.214381 l -0.809588,0.161918 q 0,-0.404794 -0.08096,-0.971506 l -1.862052,0.242877 a 11.091353,11.091353 0 0 0 0.161918,0.971505 l -0.890546,0.161918 q 0,-0.404794 -0.08096,-1.295341 L 71.824242,12.04607 q -0.08096,-0.08096 -0.161917,-0.647671 l -0.08096,-0.64767 a 14.005869,14.005869 0 0 0 0.809588,-0.08096 h 0.323835 q 0,-0.64767 -0.08096,-1.862052 a 1.5382169,1.5382169 0 0 1 1.052464,0.080959 0.08095878,0.08095878 0 0 1 0,0.080959 0.24287634,0.24287634 0 0 1 -0.08096,0.1619176 q -0.08096,0.080959 -0.08096,0.1619175 a 4.6956093,4.6956093 0 0 0 -0.161917,0.8095879 11.091353,11.091353 0 0 0 0,0.485753 l 0.566711,-0.08096 q 0.323835,0 1.133423,-0.161918 0,0.242876 0.161918,1.214382 l 0.08096,0.485753 q 0.971513,-1.457259 1.133431,-3.8050632 a 2.3478047,2.3478047 0 0 1 1.052464,0.2428763 0.08095878,0.08095878 0 0 1 -0.08096,0.080959 0.32383512,0.32383512 0 0 0 -0.161926,0.2428762 5.4242384,5.4242384 0 0 0 -0.323834,1.2953408 z M 97.812011,3.5453975 98.540644,2.978686 a 7.2862903,7.2862903 0 0 1 0.728624,0.9715054 l 1.376302,-0.4047939 a 21.130242,21.130242 0 0 0 1.3763,-0.6476703 l 0.32383,0.7286291 a 20.563531,20.563531 0 0 1 -0.89054,0.3238351 l -0.56671,0.1619175 -4.695614,1.6191757 0.323835,0.9715054 1.376296,-0.4857527 a 7.772043,7.772043 0 0 0 -0.323833,-0.8095878 7.5291667,7.5291667 0 0 1 0.323833,-0.080959 0.80958781,0.80958781 0 0 1 0.566712,-0.080959 q 0,0 0,0.1619175 a 0.4047939,0.4047939 0 0 0 0,0.1619176 l 0.08097,0.4047939 1.862061,-0.6476703 a 5.1004032,5.1004032 0 0 0 -0.24288,-0.8095879 1.4572581,1.4572581 0 0 1 0.80959,-0.1619175 0,0 0 0 0 0.081,0.080959 0.16191756,0.16191756 0 0 1 -0.081,0.080959 0.24287634,0.24287634 0 0 0 0,0.080959 q 0,0.2428764 0.081,0.4857527 l 0.48575,-0.1619176 a 12.224776,12.224776 0 0 0 0.72863,-0.2428764 l 0.56671,-0.1619175 0.16192,0.6476704 a 30.602419,30.602419 0 0 0 -1.29534,0.4047939 l -0.40479,0.080959 0.16191,0.6476702 a 3.5621864,3.5621864 0 0 0 0.4048,0.7286286 37.402957,37.402957 0 0 0 -1.21438,0.4047939 L 99.512173,7.7552546 A 8.7435484,8.7435484 0 0 0 98.540644,8.160048 8.0149193,8.0149193 0 0 0 98.297767,7.2695014 L 98.054889,6.7837488 96.678588,7.2695014 a 13.682034,13.682034 0 0 1 0.647668,2.5097222 q 0.161921,1.6191754 -0.08097,2.6716404 a 2.3478047,2.3478047 0 0 0 -0.890533,-0.242877 q 0.404794,-1.457258 0.242876,-2.5097222 A 15.30121,15.30121 0 0 0 95.949959,7.4314189 75.696461,75.696461 0 0 0 95.140371,5.245532 13.27724,13.27724 0 0 0 96.111877,5.0026556 4.1288978,4.1288978 0 0 0 96.597629,4.840738 L 98.540644,4.1930677 A 8.0958781,8.0958781 0 0 0 97.973933,3.707315 1.862052,1.862052 0 0 1 97.812011,3.5453975 Z m -32.788306,6.8814965 0.08096,1.457258 h 1.538216 a 8.500672,8.500672 0 0 0 1.214382,-0.161918 h 0.08096 l 0.08096,0.971506 h -0.08096 a 8.9864248,8.9864248 0 0 0 -1.295349,-0.08096 h -1.538216 v 1.295341 h 0.971505 a 4.7765681,4.7765681 0 0 0 1.052465,-0.08096 5.5861559,5.5861559 0 0 0 -0.08096,1.133423 v 1.29534 a 77.882347,77.882347 0 0 0 0.08096,1.214382 l 0.08096,0.323835 h -0.971505 a 2.1858871,2.1858871 0 0 0 0.08096,-0.728628 h -2.995475 a 2.4287634,2.4287634 0 0 0 0.08096,0.809587 H 62.433023 V 17.71319 a 7.772043,7.772043 0 0 0 0.08096,-1.133424 l -0.08096,-1.538216 a 4.6956093,4.6956093 0 0 0 -0.08096,-1.133423 5.2623208,5.2623208 0 0 0 1.052464,0 h 0.890546 v -1.214382 h -1.29534 a 7.5291667,7.5291667 0 0 0 -1.133431,0.161918 h -0.161907 v -0.971511 h 0.08096 a 7.8530018,7.8530018 0 0 0 1.214382,0.08096 l 1.295339,-0.08096 v -1.295341 a 120.87146,120.87146 0 0 1 -1.943011,0.323836 3.8050628,3.8050628 0 0 0 -0.404794,-0.647671 l -0.08096,-0.161917 a 16.515592,16.515592 0 0 0 0.323835,0 14.896415,14.896415 0 0 0 4.452733,-0.8095881 2.995475,2.995475 0 0 1 0.485753,0.8905471 h -0.08096 a 1.862052,1.862052 0 0 0 -0.323836,0 1.862052,1.862052 0 0 0 -0.242875,0.08096 5.9909498,5.9909498 0 0 0 -0.566712,0.08096 q -0.566711,0.08096 -0.890547,0.08096 z M 39.278812,8.7267595 38.793059,10.993605 a 4.3717742,4.3717742 0 0 0 -0.161917,1.052465 l -0.890547,-0.161918 a 0.89054659,0.89054659 0 0 0 0.161918,-0.566712 l -2.428763,-0.566711 -0.566712,2.67164 q -0.242877,0.64767 0.404794,0.809588 a 1.2953405,1.2953405 0 0 0 0.08096,0 l 1.619175,0.404794 a 0.97150535,0.97150535 0 0 0 1.133423,-1.052464 q 0.323836,0.485752 0.728629,0.728628 0,0.08096 0,0.161918 a 1.133423,1.133423 0 0 1 -1.376303,0.890547 l -2.752599,-0.64767 q -0.971505,-0.161918 -0.728629,-0.971506 l 0.647671,-2.995475 a 9.3102599,9.3102599 0 0 0 0.161917,-0.8905466 4.1288978,4.1288978 0 0 0 0.971505,0.2428766 L 38.064428,10.66977 38.550181,8.4838831 36.364293,7.9981304 A 5.4242384,5.4242384 0 0 0 35.149915,7.8362128 l 0.161917,-0.8905465 a 5.4242384,5.4242384 0 0 0 1.214382,0.4047938 l 2.104928,0.4857527 a 6.2338262,6.2338262 0 0 0 0.971505,0.080959 2.590681,2.590681 0 0 0 -0.323835,0.8095877 z m 58.776077,0.728629 -0.242878,-0.6476703 q 0.323834,-0.080959 1.214379,-0.4047939 l 1.7811,-0.5667115 a 25.663934,25.663934 0 0 0 1.61917,-0.6476702 0.08095878,0.08095878 0 0 1 0.081,0.080959 q -0.32383,1.457258 -1.05246,2.4287633 a 9.8769713,9.8769713 0 0 0 2.99547,-0.4047939 2.590681,2.590681 0 0 0 -0.40479,0.971505 16.839426,16.839426 0 0 1 -2.83356,0.08096 1.4572581,1.4572581 0 0 1 -0.24287,0 q -1.133432,0.971506 -2.428767,1.700135 a 1.133423,1.133423 0 0 1 -0.161922,-0.08096 2.2668459,2.2668459 0 0 0 -0.728633,-0.404794 q 1.457266,-0.485753 2.671642,-1.376299 A 7.9339606,7.9339606 0 0 1 98.702575,9.5363473 l 0.566711,-0.5667115 -0.161912,0.080959 q -0.242878,0.080959 -0.566711,0.2428764 z m -6.476704,1.7001345 0.404794,1.862052 a 3.4812276,3.4812276 0 0 0 0.728629,-0.242876 l 0.161917,0.64767 a 10.281765,10.281765 0 0 0 -1.052464,0.161918 l -4.61465,1.133423 a 10.200806,10.200806 0 0 0 -0.971505,0.242875 4.047939,4.047939 0 0 0 0.161917,-0.08096 q 0,0 -0.242876,0.161918 l -0.161918,-0.728629 a 2.6716398,2.6716398 0 0 0 0.728629,-0.08096 l -0.404793,-1.862057 q -0.08096,-0.485753 -0.242877,-0.971506 h 0.08096 a 4.8575269,4.8575269 0 0 0 0.809587,-0.08096 l 3.481228,-0.809588 a 5.8290323,5.8290323 0 0 0 0.971506,-0.323835 v 0.161918 a 4.4527329,4.4527329 0 0 0 0.161918,0.809588 z M 24.949108,4.840738 22.925139,10.750729 a 0.32383512,0.32383512 0 0 1 -0.08096,0.161918 1.862052,1.862052 0 0 1 -1.943011,-0.08096 1.6191756,1.6191756 0 0 0 -0.08096,-1.0524646 6.2338262,6.2338262 0 0 0 0.72863,0.2428766 q 0.566711,0.242876 0.64767,0 a 0.24287634,0.24287634 0 0 0 0,-0.080959 L 24.05856,4.5978612 a 6.4767025,6.4767025 0 0 0 0.323835,-1.4572581 4.1288978,4.1288978 0 0 1 1.214382,0.5667114 0.32383512,0.32383512 0 0 1 -0.08096,0.080959 2.3478047,2.3478047 0 0 0 -0.566712,1.0524642 z m 6.152867,4.2098566 0.161918,-0.8095878 q 0.08096,0.1619175 1.052464,0.3238351 l 0.323835,0.080959 a 4.047939,4.047939 0 0 0 0.809588,0.1619176 v 0.080959 q -0.161917,0.3238348 -0.161917,0.64767 l -0.72863,2.9954745 a 17.568056,17.568056 0 0 0 1.214382,-0.728629 l 0.161918,0.890547 q -1.295341,0.566711 -2.104929,1.052464 l -0.404793,-0.809588 a 1.0524642,1.0524642 0 0 0 0.404793,-0.64767 L 32.478274,9.2934709 32.15444,9.2125119 Q 31.182934,9.0505946 31.101975,9.0505946 Z M 86.720658,7.0266251 88.906545,6.5408724 a 5.5051971,5.5051971 0 0 0 1.133423,-0.3238351 11.900941,11.900941 0 0 0 0.242877,0.9715053 l 0.323834,1.4572581 q 0.08096,0.4857527 0.242877,0.8905466 v 0.080959 q 0,0 -1.214382,0.2428763 l -2.104929,0.4857524 q -0.566711,0.161918 -1.133422,0.323835 h -0.08096 A 13.27724,13.27724 0 0 0 86.07299,9.5363474 L 85.749153,8.0790892 A 8.0958781,8.0958781 0 0 0 85.587235,7.4314189 L 85.506276,7.2695014 A 7.8530018,7.8530018 0 0 0 86.720658,7.0266251 Z M 21.710757,4.5169028 q 0.890546,0.4857528 0.971505,0.6476703 a 0.08095878,0.08095878 0 0 1 -0.08096,0.080959 1.7810932,1.7810932 0 0 0 -0.485753,0.4857527 65.981407,65.981407 0 0 1 -2.590684,2.9954749 Q 19.120076,8.2410068 18.553364,8.0790892 a 9.2293009,9.2293009 0 0 0 3.157393,-3.5621864 z m 3.724103,1.7001345 0.890547,-0.1619175 a 33.1931,33.1931 0 0 1 0.728629,4.5336912 l -1.133423,0.08096 q 0,-2.5097218 -0.485753,-4.4527327 z M 16.367477,5.3264907 16.043642,5.974161 11.590909,4.0311502 11.914744,3.3025211 Z m 94.721783,-2.0239696 0.32383,0.7286291 -4.45274,1.9430108 -0.32383,-0.6476703 z M 66.238086,16.417844 v -1.781093 h -2.995475 v 1.781093 z m -5.667114,-2.509723 0.890546,0.323836 q -0.08096,0.566712 -0.323835,1.29534 a 24.773387,24.773387 0 0 1 -0.323835,1.538217 1.2953405,1.2953405 0 0 0 -0.08096,0.566711 0.80958781,0.80958781 0 0 1 -0.08096,0.323835 3.2383512,3.2383512 0 0 1 -0.890547,-0.64767 q 0.566719,-1.376299 0.809595,-3.400269 z m 24.125716,-2.347804 0.809588,0.323835 a 1048.821,1048.821 0 0 0 -0.161917,2.833558 q 0,0.242875 0,0.566711 a 0.32383512,0.32383512 0 0 1 0,0.242876 l -0.971506,-0.404794 a 15.139292,15.139292 0 0 0 0.323835,-3.562186 z m 4.776568,-4.5336919 -2.995475,0.728629 0.161918,0.8095878 2.995475,-0.7286291 z m -15.139292,4.0479389 -1.862052,0.242876 0.242877,1.943011 1.862052,-0.242876 z M 89.797092,8.4029243 86.801617,9.0505946 86.963534,9.8601824 89.959009,9.2125121 Z M 74.6578,13.584287 l -1.862052,0.242876 0.242876,1.862052 1.862052,-0.242877 z m -31.735843,2.104928 -0.485752,-0.08096 0.08096,-1.052464 1.052464,0.161917 -0.161918,0.971506 a 1.2953405,1.2953405 0 0 1 -1.214382,1.214381 l 0.08096,-0.485753 a 0.72862903,0.72862903 0 0 0 0.647671,-0.728628 z m 47.84664,-4.614651 -0.809588,0.242876 0.485753,2.02397 0.809588,-0.161918 z m -1.457258,0.323835 -0.809588,0.242877 0.485753,2.023969 0.809588,-0.161917 z m -1.052464,2.428764 -0.485753,-2.02397 -0.809588,0.161918 0.485753,2.104928 z M 83.158472,8.0790892 83.563265,7.2695014 a 39.022133,39.022133 0 0 1 1.862052,0.8095878 L 85.020524,8.9696358 A 8.9864248,8.9864248 0 0 0 83.158472,8.0790892 Z m -0.08096,2.2668458 0.404793,-0.8095877 a 14.167787,14.167787 0 0 1 1.862052,0.5667117 l -0.404792,0.890546 a 7.3672491,7.3672491 0 0 0 -1.862052,-0.64767 z M 32.721151,6.2170373 33.611697,5.974161 a 14.410663,14.410663 0 0 1 0.566712,1.8620518 L 33.206904,7.9981304 A 5.181362,5.181362 0 0 0 32.721151,6.2170373 Z M 100.64557,5.8932022 98.783513,6.5408724 99.02639,7.3504601 100.88845,6.70279 Z m -1.376302,3.0764336 a 4.2908154,4.2908154 0 0 0 1.538222,0.6476703 3.8050628,3.8050628 0 0 0 0.72862,-1.3762993 z m -22.911334,3.8050632 0.566712,-0.485753 a 12.548611,12.548611 0 0 1 0.971505,1.295341 1.7001344,1.7001344 0 0 1 0.242877,0.323834 l -0.647671,0.485753 a 8.2577957,8.2577957 0 0 0 -1.133423,-1.619175 z m -16.59655,-2.509723 0.566711,-0.7286287 a 16.839426,16.839426 0 0 1 1.538218,0.9715057 l -0.485754,0.728629 a 7.2053315,7.2053315 0 0 0 -1.619175,-0.971506 z m -0.404794,2.347805 0.404794,-0.728629 q 0.890547,0.323835 1.619175,0.809588 l -0.404794,0.809588 A 6.2338262,6.2338262 0 0 0 59.35659,12.612781 Z"
                 id="path8"
                 style="stroke-width:0.809588" />
            </g>
          </g>
        </g>
      </g>
    </g>
  </g>
  <mask
     id="2e7a7a7e-cf1a-4ea4-a3d9-fbea6707fd3e">
    <g
       fill="#fff"
       id="g22">
      <rect
         class="image-rect"
         width="150"
         height="158.63"
         fill-opacity="0"
         stroke-width="2"
         id="rect13" />
      <g
         class="image-svg-svg primary"
         transform="scale(1.5)"
         id="g15">
        <path
           d="m80.235 19.849c-10.296-1.919-19.206-6.332-24.868-9.695-1.623-0.965-3.479-1.475-5.367-1.475s-3.744 0.51-5.367 1.474c-5.662 3.364-14.572 7.776-24.868 9.695-5.004 0.933-8.637 5.283-8.637 10.343v39.616c0 5.06 3.632 9.41 8.637 10.343 10.296 1.919 19.206 6.332 24.867 9.695 1.624 0.965 3.48 1.474 5.367 1.474 1.888 0 3.744-0.51 5.367-1.474 5.662-3.364 14.572-7.776 24.868-9.695 5.004-0.933 8.636-5.283 8.636-10.343v-39.615c1e-3 -5.06-3.631-9.41-8.635-10.343zm8.149 49.959c0 4.826-3.465 8.974-8.239 9.864-10.366 1.932-19.332 6.371-25.027 9.755-1.548 0.92-3.318 1.407-5.118 1.407s-3.57-0.486-5.119-1.406c-5.695-3.384-14.661-7.823-25.027-9.755-4.774-0.89-8.239-5.039-8.239-9.864v-39.617c0-4.826 3.465-8.974 8.239-9.864 10.366-1.932 19.332-6.371 25.027-9.755 1.549-0.92 3.319-1.407 5.119-1.407s3.57 0.486 5.119 1.406c5.695 3.384 14.661 7.823 25.027 9.755 4.774 0.89 8.239 5.039 8.239 9.864v39.617z"
           fill="none"
           id="path13" />
        <path
           d="m80.909 16.232c-9.675-1.803-18.072-5.92-23.662-9.241-4.467-2.654-10.026-2.654-14.493 0-5.59 3.321-13.987 7.438-23.663 9.241-6.738 1.256-11.642 7.106-11.642 13.96v39.616c0 6.854 4.904 12.704 11.642 13.96 9.675 1.803 18.072 5.92 23.663 9.241 4.467 2.654 10.026 2.654 14.493 0 5.59-3.321 13.987-7.438 23.662-9.241 6.738-1.256 11.642-7.106 11.642-13.96v-39.616c0-6.854-4.904-12.704-11.642-13.96zm7.962 53.576c0 5.06-3.632 9.41-8.636 10.343-10.296 1.919-19.206 6.332-24.868 9.695-1.623 0.965-3.479 1.474-5.367 1.474s-3.744-0.51-5.367-1.474c-5.661-3.364-14.572-7.776-24.867-9.695-5.004-0.933-8.637-5.283-8.637-10.343v-39.616c0-5.06 3.632-9.41 8.637-10.343 10.296-1.919 19.206-6.332 24.868-9.695 1.622-0.965 3.478-1.475 5.366-1.475s3.744 0.51 5.367 1.474c5.661 3.364 14.571 7.776 24.868 9.695 5.004 0.933 8.636 5.283 8.636 10.343v39.617z"
           id="path14" />
        <path
           d="m80.146 20.328c-10.366-1.932-19.332-6.371-25.027-9.755-1.549-0.92-3.319-1.407-5.119-1.407s-3.57 0.486-5.119 1.406c-5.696 3.384-14.661 7.823-25.027 9.755-4.774 0.89-8.239 5.039-8.239 9.864v39.616c0 4.826 3.465 8.974 8.239 9.864 10.366 1.932 19.332 6.371 25.027 9.755 1.548 0.92 3.318 1.406 5.119 1.406s3.57-0.486 5.118-1.406c5.696-3.384 14.661-7.823 25.027-9.755 4.774-0.89 8.239-5.039 8.239-9.864v-39.615c0-4.826-3.465-8.974-8.238-9.864z"
           id="path15" />
      </g>
      <g
         transform="translate(20.004 54.325)"
         id="g21">
        <g
           class="tp-name"
           transform="translate(0)"
           id="g17">
          <g
             transform="scale(1)"
             id="g16">
            <path
               transform="translate(-2.178 32.23)"
               d="m8.57 3.12q0.56 0.11 1.56-0.21 1-0.31 1.37-0.72 0.15-0.19 0.17-0.48 0.02-0.3-0.05-1.93-0.15-3.16-0.15-7.26t0.15-4.36q0.14-0.33 0.51-0.63 0.38-0.3 2.01-1.26 2.34-1.37 2.34-1.6 0-0.07-0.11-0.18-0.08-0.08-1.9 0.52-2.11 0.67-2.45 0.59-0.52-0.07-0.55-1.48 0-0.23 0-2.3 0-3.2 0.22-3.6 0.19-0.37 1.19-0.41 0.22 0 0.29 0 0.78-0.04 1.25 0.02 0.46 0.05 0.74 0.24 0.28 0.18 0.3 0.46 0.01 0.28-0.21 0.82t-0.63 1.2q-0.41 0.67-1.11 1.71-0.45 0.67-0.48 0.8-0.04 0.13 0.11 0.28 0.4 0.22 2.26-1.63 1.86-1.86 3.19-3.86 0.6-0.86 0.93-1.1t0.85-0.24q0.71 0 0.84 0.46 0.13 0.47-0.21 1.77-0.96 3.82-2.89 7.49-1.93 3.68-4.38 6.31-0.63 0.67-0.41 0.85 0.19 0.15 1.34-0.7 6.57-5.27 9.65-14.25 0.44-1.3 0.78-1.67 0.33-0.37 0.85-0.19 0.41 0.15 0.48 0.65 0.08 0.5-0.15 1.84-1.07 6.35-3.78 11.71t-6.76 9.11q-0.96 0.93-0.48 0.93 0.22 0.03 0.82-0.34 10.46-6.94 13.65-21.45 0.52-2.41 1.01-2.45 0.22 0 0.48 0.41 0.33 0.52-0.24 7.59-0.58 7.07-1.21 10.15-0.26 1.15-0.43 1.74-0.16 0.6-0.51 1.15-0.36 0.56-0.69 0.75-0.34 0.18-1.13 0.29-0.8 0.12-1.62 0.08-0.81-0.04-2.34-0.19-1.29-0.11-1.54-0.09-0.24 0.02-0.24 0.24 0 0.19 0.34 0.3 2.45 0.59 3.23 1.19 0.78 0.59 1.04 2.11 0.07 0.59 0.96 0.63t2.04-0.48 1.93-1.34q2.93-3.04 3.75-20.3 0.11-2.74 0.22-3.21 0.11-0.46 0.78-0.76 0.71-0.33 0.65-0.59t-0.91-1.11q-1.48-1.49-1.97-1.62-0.48-0.13-1.33 0.8-0.74 0.78-0.97 0.89-0.52 0.22-4 0.22-0.78 0-1.38 0-0.33 0-0.93 0-3.78-0.03-4.11-0.29-0.26-0.26 0.18-1.19 0.08-0.19 0.11-0.26 0.26-0.48 0.74-1.82 0.67-1.71 1.19-1.97 0.86-0.37-0.44-0.92-0.67-0.3-2.04-0.75-0.23-0.07-0.52-0.16-0.3-0.1-0.5-0.15-0.21-0.06-0.28-0.09-0.34-0.12-0.43 0-0.09 0.11-0.13 0.85-0.19 1.93-0.76 4.3-0.58 2.38-0.98 2.9-0.3 0.41-0.69 0.26t-1.24-1.04q-0.82-0.82-0.99-0.82-0.16 0-0.65 0.78-0.81 1.26-1.37 1.23-0.48-0.04-0.37-2.97t0.59-3.42q0.6-0.55-0.18-0.96-0.6-0.3-2.64-0.89-0.81-0.22-0.92-0.11-0.12 0.11-0.12 1.33 0 1.52-0.29 1.67-0.3 0.15-2.41-0.26-1.6-0.33-1.79-0.26-0.18 0.08-0.11 0.93 0.41 4.83-1.15 10.95-0.37 1.59-0.15 1.67 0.04 0 0.19 0 0.26-0.04 1.04-1.45t1.45-3.04q0.44-1.08 0.76-1.37 0.31-0.3 1.13-0.3 0.89 0 1.26 0.48 0.15 0.19 0.2 3.73 0.06 3.54-0.09 4.18-0.07 0.33-0.2 0.51-0.13 0.19-0.82 0.47t-1.61 0.54q-0.93 0.26-3.08 0.81-0.3 0.08-0.3 0.26 0 0.26 0.63 1.93 0.67 1.67 0.82 1.82t0.66-0.37q0.64-0.71 1.93-1.37 1.3-0.67 1.64-0.52 0.78 0.37 0.18 10.17-0.11 1.85-0.03 2.2 0.07 0.36 0.55 0.47zm-0.74-26.57q-0.26 0.18-0.69 0.18-0.42 0-0.68-0.18-0.52-0.41 0.07-2.43 0.6-2.03 1.23-1.95 0.52 0.07 0.55 2.06 0.04 1.98-0.48 2.32zm45.57 25.94q0.07 0.59 0.22 0.65 0.15 0.05 1.12-0.13 3.04-0.52 3.82-2.08 0.37-0.71 0.41-2.23 0.03-1.52 0.07-13.25 0.04-11.06 0.09-12.95 0.06-1.89 0.43-2.08 0.11-0.03 0.15-0.07 0.67-0.41-0.59-0.89-0.78-0.3-2.68-0.78-1.33-0.33-1.37-0.15-0.04 0.08 0 0.22 0.33 2.16 0.43 15.53 0.09 13.38-0.21 13.9-0.29 0.48-0.91 0.54-0.61 0.06-3.47-0.09-2.7-0.19-2.74-0.08-0.19 0.26 0.41 0.45 0.22 0.04 0.55 0.11 1.97 0.37 2.97 1.17t1.3 2.21zm-13.4-8.17q0.15 0.11 0.26 0.06 0.12-0.06 0.75-0.5 5.15-3.9 9.09-11.69 0.67-1.3 0.91-1.67t0.57-0.52q0.74-0.34-0.04-0.74-0.4-0.19-1.26-0.49-0.48-0.18-1.96-0.85-1.3-0.56-1.41-0.41-0.08 0.08-0.12 0.56-0.29 3.38-2.07 7.72t-4.16 7.53q-0.15 0.19-0.33 0.45-0.34 0.44-0.23 0.55zm31.14-0.85q1.15 0.37 1.8-0.8t0.35-3.02q-0.48-2.75-2.65-5.48-2.17-2.72-5.7-4.99-2.26-1.48-2.23-1.07 0 0.22 0.6 1 5.19 6.71 6.64 13.47 0.15 0.55 1.19 0.89zm24.68 8.2q2.52 0.15 7.83 0.04 5.3-0.11 6.64-0.37 1.41-0.26 1.78-1.14 0.37-0.87-0.63-1.54-0.56-0.4-0.71-1.07-0.14-0.67-0.14-3.08 0-0.97-0.12-1.34-0.11-0.37-0.29-0.05-0.19 0.31-0.41 1.24-0.78 2.86-1 3.3-0.52 0.89-2.15 1-0.67 0.08-4.64 0.08-4.2 0-4.9-0.04-0.71-0.04-1-0.26-0.34-0.3-0.37-0.89-0.12-0.85-0.12-6.2 0-5.34 0-5.49 0.15-1.33 0.93-1.59 0.41-0.12 3.19-0.08 0.37 0 0.71 0 0.29 0 0.81 0 3.08 0 3.57 0.19 0.48 0.18 0.41 1.3 0 0.18 0 0.26-0.08 1.18 0.61 1.35 0.68 0.17 2.28-0.61 0.67-0.3 0.74-0.54 0.08-0.24 0-1.5-0.18-3.64-0.2-7.24t0.16-3.97q0.08-0.15 0.34-0.39t0.33-0.24q0.08 0 0.45-0.26t0.41-0.33q0.07-0.26-0.93-1.17t-2.12-1.66q-0.44-0.29-0.66-0.22-0.23 0.08-0.78 0.74-0.89 1.08-1.41 1.23-0.45 0.15-6.74 0.05-6.29-0.09-7.18-0.24-0.3-0.03-0.32 0.1-0.01 0.13 0.28 0.65 0.41 0.85 0.6 0.94 0.18 0.09 1.3-0.05 2.78-0.34 7.68-0.34 0.66 0 1.59 0t1.26-0.03q0.34-0.04 0.89 0.05 0.56 0.09 0.67 0.09t0.41 0.28 0.28 0.43 0.07 0.72q0.1 0.58 0.06 0.93t-0.04 1.3 0 1.65q0 3.97-0.07 4.34-0.15 0.89-1 1.08-0.49 0.04-3.75 0.04-3.56 0-4.14-0.08-0.57-0.07-2.39-0.82-0.45-0.18-0.93-0.39-0.48-0.2-0.74-0.31l-0.26-0.07q-0.11 0 0.11 2.22 0 0.04 0 0.11 0.11 0.97 0.15 4.85 0.03 3.87 0.07 7.34t0.11 3.73q0.26 0.97 1.04 1.41 0.78 0.45 2.38 0.56zm-11.92-0.19q0.15 0.23 0.38-0.07 0.22-0.3 0.77-1.15 0.49-0.67 1.12-1.41 5.42-6.12 4.82-6.23-0.26-0.08-1.45 0.7-1.96 1.3-2.22 1.37-0.6 0.19-0.74-0.7-0.12-0.71-0.15-6.38 0-6.65 0.11-7.13 0.11-0.33 0.52-0.52 0.07-0.04 0.11-0.07 0.63-0.34 0.45-0.76-0.19-0.43-1.41-1.54-1.01-0.93-1.3-0.95-0.3-0.02-0.89 0.76-0.75 0.93-1.54 1.08-0.8 0.14-3.33-0.08-1-0.07-1.09 0-0.09 0.08 0.28 0.82 0.33 0.67 0.5 0.78t0.5-0.04q1.37-0.44 2.45-0.33t1.22 0.7q0.15 0.45 0.12 8.07-0.04 7.63-0.19 7.93-0.26 0.59-0.85 1.04-0.38 0.25-0.38 0.4 0 0.11 1.03 1.86 1.02 1.74 1.16 1.85zm2.08-25.82q1 0.48 1.8-0.06t0.8-1.69q0-1.74-1.8-3.3t-4.73-2.38q-0.78-0.22-0.91-0.07t0.35 0.71q1.08 1.18 2.21 2.91 1.13 1.72 1.65 3.06 0.3 0.67 0.48 0.74 0.08 0.04 0.15 0.08z"
               id="path16" />
          </g>
        </g>
        <g
           class="tp-slogan"
           transform="translate(-6.654 44.381)"
           fill-rule="evenodd"
           id="g20">
          <rect
             width="0"
             height="0"
             id="rect17" />
          <rect
             x="126.3"
             width="0"
             height="0"
             id="rect18" />
          <g
             transform="translate(0)"
             id="g19">
            <g
               transform="scale(1)"
               id="g18">
              <path
                 d="m50.6 8.9-0.1 1.6 2 0.2a11.1 11.1 0 0 0 1.7 0h0.1v1.1l-0.1-0.1a14.1 14.1 0 0 0-1.8-0.2l-2-0.2-0.1 2.2 1.5 0.1q1 0.1 1.6 0.1h0.1l-0.1 1h-0.1a9.9 9.9 0 0 0-1.5-0.2l-1.6-0.1-0.2 2.5 2.6 0.2a12.2 12.2 0 0 0 1.6 0.1h0.1l-0.1 1h-0.1a10.9 10.9 0 0 0-1.6-0.2l-6.7-0.6q-0.8-0.1-1.6-0.1h-0.1v-1h0.2a12.9 12.9 0 0 0 1.6 0.3l3.1 0.2 0.2-2.5-1.4-0.1q-0.9-0.1-1.6-0.1h-0.1l0.1-1.1 0.1 0.1a12.5 12.5 0 0 0 1.5 0.2l1.5 0.1 0.2-2.1-2.8-0.3a81.5 81.5 0 0 1-1.3 1.7 4.5 4.5 0 0 0-0.7-0.3l-0.3-0.1a8 8 0 0 0 2.4-4.1 2.5 2.5 0 0 1 1.4 0.6t-0.2 0.2a4.3 4.3 0 0 0-0.9 1.2l2.4 0.2 0.2-1.7a5.8 5.8 0 0 0 0-1.1v-0.1q1.2 0.1 1.4 0.3a0.3 0.3 0 0 1-0.1 0.1 1.7 1.7 0 0 0-0.4 1zm30.1 0 1.7-0.3a20.5 20.5 0 0 0 1.6-0.2 1337 1337 0 0 1 0.3 4.9 140.3 140.3 0 0 1 0.1 2.3 2.2 2.2 0 0 1-2.4 1.7 2.7 2.7 0 0 0-0.7-1.1 5.7 5.7 0 0 0 1 0 2.3 2.3 0 0 0 0.9-0.3q0.2 0 0.1-2.4a72.2 72.2 0 0 0-0.2-1.8 256.2 256.2 0 0 0-0.1-2.4l-2.6 0.3a91.7 91.7 0 0 1-0.8 2.2q-0.5-0.2-0.9-0.2l0.5 4.1a14.2 14.2 0 0 0 0.2 1.5l-1 0.2q0-0.5-0.1-1.2l-2.3 0.3a13.7 13.7 0 0 0 0.2 1.2l-1.1 0.2q0-0.5-0.1-1.6l-0.6-5q-0.1-0.1-0.2-0.8l-0.1-0.8a17.3 17.3 0 0 0 1-0.1h0.4q0-0.8-0.1-2.3a1.9 1.9 0 0 1 1.3 0.1 0.1 0.1 0 0 1 0 0.1 0.3 0.3 0 0 1-0.1 0.2q-0.1 0.1-0.1 0.2a5.8 5.8 0 0 0-0.2 1 13.7 13.7 0 0 0 0 0.6l0.7-0.1q0.4 0 1.4-0.2 0 0.3 0.2 1.5l0.1 0.6q1.2-1.8 1.4-4.7a2.9 2.9 0 0 1 1.3 0.3 0.1 0.1 0 0 1-0.1 0.1 0.4 0.4 0 0 0-0.2 0.3 6.7 6.7 0 0 0-0.4 1.6zm25.8-8.1 0.9-0.7a9 9 0 0 1 0.9 1.2l1.7-0.5a26.1 26.1 0 0 0 1.7-0.8l0.4 0.9a25.4 25.4 0 0 1-1.1 0.4l-0.7 0.2-5.8 2 0.4 1.2 1.7-0.6a9.6 9.6 0 0 0-0.4-1 9.3 9.3 0 0 1 0.4-0.1 1 1 0 0 1 0.7-0.1t0 0.2a0.5 0.5 0 0 0 0 0.2l0.1 0.5 2.3-0.8a6.3 6.3 0 0 0-0.3-1 1.8 1.8 0 0 1 1-0.2 0 0 0 0 1 0.1 0.1 0.2 0.2 0 0 1-0.1 0.1 0.3 0.3 0 0 0 0 0.1q0 0.3 0.1 0.6l0.6-0.2a15.1 15.1 0 0 0 0.9-0.3l0.7-0.2 0.2 0.8a37.8 37.8 0 0 0-1.6 0.5l-0.5 0.1 0.2 0.8a4.4 4.4 0 0 0 0.5 0.9 46.2 46.2 0 0 0-1.5 0.5l-1.4 0.4a10.8 10.8 0 0 0-1.2 0.5 9.9 9.9 0 0 0-0.3-1.1l-0.3-0.6-1.7 0.6a16.9 16.9 0 0 1 0.8 3.1q0.2 2-0.1 3.3a2.9 2.9 0 0 0-1.1-0.3q0.5-1.8 0.3-3.1a18.9 18.9 0 0 0-0.8-2.8 93.5 93.5 0 0 0-1-2.7 16.4 16.4 0 0 0 1.2-0.3 5.1 5.1 0 0 0 0.6-0.2l2.4-0.8a10 10 0 0 0-0.7-0.6 2.3 2.3 0 0 1-0.2-0.2zm-40.5 8.5 0.1 1.8h1.9a10.5 10.5 0 0 0 1.5-0.2h0.1l0.1 1.2h-0.1a11.1 11.1 0 0 0-1.6-0.1h-1.9v1.6h1.2a5.9 5.9 0 0 0 1.3-0.1 6.9 6.9 0 0 0-0.1 1.4v1.6a96.2 96.2 0 0 0 0.1 1.5l0.1 0.4h-1.2a2.7 2.7 0 0 0 0.1-0.9h-3.7a3 3 0 0 0 0.1 1h-1.2v-0.2a9.6 9.6 0 0 0 0.1-1.4l-0.1-1.9a5.8 5.8 0 0 0-0.1-1.4 6.5 6.5 0 0 0 1.3 0h1.1v-1.5h-1.6a9.3 9.3 0 0 0-1.4 0.2h-0.2v-1.2h0.1a9.7 9.7 0 0 0 1.5 0.1l1.6-0.1v-1.6a149.3 149.3 0 0 1-2.4 0.4 4.7 4.7 0 0 0-0.5-0.8l-0.1-0.2a20.4 20.4 0 0 0 0.4 0 18.4 18.4 0 0 0 5.5-1 3.7 3.7 0 0 1 0.6 1.1h-0.1a2.3 2.3 0 0 0-0.4 0 2.3 2.3 0 0 0-0.3 0.1 7.4 7.4 0 0 0-0.7 0.1q-0.7 0.1-1.1 0.1zm-31.8-2.1-0.6 2.8a5.4 5.4 0 0 0-0.2 1.3l-1.1-0.2a1.1 1.1 0 0 0 0.2-0.7l-3-0.7-0.7 3.3q-0.3 0.8 0.5 1a1.6 1.6 0 0 0 0.1 0l2 0.5a1.2 1.2 0 0 0 1.4-1.3q0.4 0.6 0.9 0.9 0 0.1 0 0.2a1.4 1.4 0 0 1-1.7 1.1l-3.4-0.8q-1.2-0.2-0.9-1.2l0.8-3.7a11.5 11.5 0 0 0 0.2-1.1 5.1 5.1 0 0 0 1.2 0.3l2.8 0.7 0.6-2.7-2.7-0.6a6.7 6.7 0 0 0-1.5-0.2l0.2-1.1a6.7 6.7 0 0 0 1.5 0.5l2.6 0.6a7.7 7.7 0 0 0 1.2 0.1 3.2 3.2 0 0 0-0.4 1zm72.6 0.9-0.3-0.8q0.4-0.1 1.5-0.5l2.2-0.7a31.7 31.7 0 0 0 2-0.8 0.1 0.1 0 0 1 0.1 0.1q-0.4 1.8-1.3 3a12.2 12.2 0 0 0 3.7-0.5 3.2 3.2 0 0 0-0.5 1.2 20.8 20.8 0 0 1-3.5 0.1 1.8 1.8 0 0 1-0.3 0q-1.4 1.2-3 2.1a1.4 1.4 0 0 1-0.2-0.1 2.8 2.8 0 0 0-0.9-0.5q1.8-0.6 3.3-1.7a9.8 9.8 0 0 1-2-0.8l0.7-0.7-0.2 0.1q-0.3 0.1-0.7 0.3l-0.6 0.2zm-8 2.1 0.5 2.3a4.3 4.3 0 0 0 0.9-0.3l0.2 0.8a12.7 12.7 0 0 0-1.3 0.2l-5.7 1.4a12.6 12.6 0 0 0-1.2 0.3 5 5 0 0 0 0.2-0.1t-0.3 0.2l-0.2-0.9a3.3 3.3 0 0 0 0.9-0.1l-0.5-2.3q-0.1-0.6-0.3-1.2h0.1a6 6 0 0 0 1-0.1l4.3-1a7.2 7.2 0 0 0 1.2-0.4v0.2a5.5 5.5 0 0 0 0.2 1zm-82.3-7.8-2.5 7.3a0.4 0.4 0 0 1-0.1 0.2 2.3 2.3 0 0 1-2.4-0.1 2 2 0 0 0-0.1-1.3 7.7 7.7 0 0 0 0.9 0.3q0.7 0.3 0.8 0a0.3 0.3 0 0 0 0-0.1l2.3-6.6a8 8 0 0 0 0.4-1.8 5.1 5.1 0 0 1 1.5 0.7 0.4 0.4 0 0 1-0.1 0.1 2.9 2.9 0 0 0-0.7 1.3zm7.6 5.2 0.2-1q0.1 0.2 1.3 0.4l0.4 0.1a5 5 0 0 0 1 0.2v0.1q-0.2 0.4-0.2 0.8l-0.9 3.7a21.7 21.7 0 0 0 1.5-0.9l0.2 1.1q-1.6 0.7-2.6 1.3l-0.5-1a1.3 1.3 0 0 0 0.5-0.8l0.8-3.7-0.4-0.1q-1.2-0.2-1.3-0.2zm68.7-2.5 2.7-0.6a6.8 6.8 0 0 0 1.4-0.4 14.7 14.7 0 0 0 0.3 1.2l0.4 1.8q0.1 0.6 0.3 1.1v0.1t-1.5 0.3l-2.6 0.6q-0.7 0.2-1.4 0.4h-0.1a16.4 16.4 0 0 0-0.3-1.4l-0.4-1.8a10 10 0 0 0-0.2-0.8l-0.1-0.2a9.7 9.7 0 0 0 1.5-0.3zm-80.3-3.1q1.1 0.6 1.2 0.8a0.1 0.1 0 0 1-0.1 0.1 2.2 2.2 0 0 0-0.6 0.6 81.5 81.5 0 0 1-3.2 3.7q-0.5-0.6-1.2-0.8a11.4 11.4 0 0 0 3.9-4.4zm4.6 2.1 1.1-0.2a41 41 0 0 1 0.9 5.6l-1.4 0.1q0-3.1-0.6-5.5zm-11.2-1.1-0.4 0.8-5.5-2.4 0.4-0.9 5.5 2.5zm117-2.5 0.4 0.9-5.5 2.4-0.4-0.8 5.5-2.5zm-55.4 16.2v-2.2h-3.7v2.2h3.7zm-7-3.1 1.1 0.4q-0.1 0.7-0.4 1.6a30.6 30.6 0 0 1-0.4 1.9 1.6 1.6 0 0 0-0.1 0.7 1 1 0 0 1-0.1 0.4 4 4 0 0 1-1.1-0.8q0.7-1.7 1-4.2zm29.8-2.9 1 0.4a1295.5 1295.5 0 0 0-0.2 3.5q0 0.3 0 0.7a0.4 0.4 0 0 1 0 0.3l-1.2-0.5a18.7 18.7 0 0 0 0.4-4.4zm5.9-5.6-3.7 0.9 0.2 1 3.7-0.9-0.2-1zm-18.7 5-2.3 0.3 0.3 2.4 2.3-0.3-0.3-2.4zm19.1-3.3-3.7 0.8 0.2 1 3.7-0.8-0.2-1zm-18.7 6.4-2.3 0.3 0.3 2.3 2.3-0.3-0.3-2.3zm-39.2 2.6-0.6-0.1 0.1-1.3 1.3 0.2-0.2 1.2a1.6 1.6 0 0 1-1.5 1.5l0.1-0.6a0.9 0.9 0 0 0 0.8-0.9zm59.1-5.7-1 0.3 0.6 2.5 1-0.2-0.6-2.6zm-1.8 0.4-1 0.3 0.6 2.5 1-0.2-0.6-2.6zm-1.3 3-0.6-2.5-1 0.2 0.6 2.6 1-0.3zm-6.3-7.1 0.5-1a48.2 48.2 0 0 1 2.3 1l-0.5 1.1a11.1 11.1 0 0 0-2.3-1.1zm-0.1 2.8 0.5-1a17.5 17.5 0 0 1 2.3 0.7l-0.5 1.1a9.1 9.1 0 0 0-2.3-0.8zm-62.2-5.1 1.1-0.3a17.8 17.8 0 0 1 0.7 2.3l-1.2 0.2a6.4 6.4 0 0 0-0.6-2.2zm83.9-0.4-2.3 0.8 0.3 1 2.3-0.8-0.3-1zm-1.7 3.8a5.3 5.3 0 0 0 1.9 0.8 4.7 4.7 0 0 0 0.9-1.7l-2.8 0.9zm-28.3 4.7 0.7-0.6a15.5 15.5 0 0 1 1.2 1.6 2.1 2.1 0 0 1 0.3 0.4l-0.8 0.6a10.2 10.2 0 0 0-1.4-2zm-20.5-3.1 0.7-0.9a20.8 20.8 0 0 1 1.9 1.2l-0.6 0.9a8.9 8.9 0 0 0-2-1.2zm-0.5 2.9 0.5-0.9q1.1 0.4 2 1l-0.5 1a7.7 7.7 0 0 0-2-1.1z"
                 id="path18" />
            </g>
          </g>
        </g>
      </g>
    </g>
  </mask>
</svg>
