<svg version="1.0" xmlns="http://www.w3.org/2000/svg" xmlns:xlink="http://www.w3.org/1999/xlink"
     width="100%" height="100%" viewBox="0 0 340.000000 250.000000" preserveAspectRatio="xMidYMid meet"
     color-interpolation-filters="sRGB" style="margin: auto;">
    <rect x="0" y="0" width="100%" height="100%" fill="#ffffff" fill-opacity="1" class="background">
    </rect>
    <rect x="0" y="0" width="100%" height="100%" fill="url(#watermark)" fill-opacity="1"
          class="watermarklayer"></rect>
    <g class="iconmbgsvg" transform="translate(95,45.68444061279297)">
        <g fill="#12776f" mask="url(#2e7a7a7e-cf1a-4ea4-a3d9-fbea6707fd3e)">
            <g>
                <g>
                    <rect fill="#12776f" fill-opacity="0" stroke-width="2" x="0" y="0" width="149.99999999999952"
                          height="158.63111919542246" class="image-rect"></rect>
                    <svg x="0" y="0"
                         width="149.99999999999952" height="158.63111919542246"
                         class="image-svg-svg primary" style="overflow: visible;">
                        <svg fill="#333333"
                            xmlns="http://www.w3.org/2000/svg" xmlns:xlink="http://www.w3.org/1999/xlink" version="1.1"
                            x="0px" y="0px"
                            viewBox="7.448993682861328 5.000499725341797 85.10200500488281 89.99899291992188"
                            enable-background="new 0 0 100 100" xml:space="preserve">
                            <g>
                                <path fill="none"
                                      d="M80.235,19.849c-10.296-1.919-19.206-6.332-24.868-9.695C53.744,9.189,51.888,8.679,50,8.679   c-1.888,0-3.744,0.51-5.367,1.474c-5.662,3.364-14.572,7.776-24.868,9.695c-5.004,0.933-8.637,5.283-8.637,10.343v39.616   c0,5.06,3.632,9.41,8.637,10.343c10.296,1.919,19.206,6.332,24.867,9.695c1.624,0.965,3.48,1.474,5.367,1.474   c1.888,0,3.744-0.51,5.367-1.474c5.662-3.364,14.572-7.776,24.868-9.695c5.004-0.933,8.636-5.283,8.636-10.343V30.192   C88.871,25.132,85.239,20.782,80.235,19.849z M88.384,69.808c0,4.826-3.465,8.974-8.239,9.864   c-10.366,1.932-19.332,6.371-25.027,9.755C53.57,90.347,51.8,90.834,50,90.834s-3.57-0.486-5.119-1.406   c-5.695-3.384-14.661-7.823-25.027-9.755c-4.774-0.89-8.239-5.039-8.239-9.864V30.192c0-4.826,3.465-8.974,8.239-9.864   c10.366-1.932,19.332-6.371,25.027-9.755C46.43,9.653,48.2,9.166,50,9.166s3.57,0.486,5.119,1.406   c5.695,3.384,14.661,7.823,25.027,9.755c4.774,0.89,8.239,5.039,8.239,9.864V69.808z">
                                </path>
                                <path fill="#333333"
                                      d="M80.909,16.232c-9.675-1.803-18.072-5.92-23.662-9.241c-4.467-2.654-10.026-2.654-14.493,0   c-5.59,3.321-13.987,7.438-23.663,9.241c-6.738,1.256-11.642,7.106-11.642,13.96v39.616c0,6.854,4.904,12.704,11.642,13.96   c9.675,1.803,18.072,5.92,23.663,9.241c4.467,2.654,10.026,2.654,14.493,0c5.59-3.321,13.987-7.438,23.662-9.241   c6.738-1.256,11.642-7.106,11.642-13.96V30.192C92.551,23.338,87.647,17.488,80.909,16.232z M88.871,69.808   c0,5.06-3.632,9.41-8.636,10.343c-10.296,1.919-19.206,6.332-24.868,9.695C53.744,90.811,51.888,91.32,50,91.32   c-1.888,0-3.744-0.51-5.367-1.474c-5.661-3.364-14.572-7.776-24.867-9.695c-5.004-0.933-8.637-5.283-8.637-10.343V30.192   c0-5.06,3.632-9.41,8.637-10.343c10.296-1.919,19.206-6.332,24.868-9.695C46.256,9.189,48.112,8.679,50,8.679   c1.888,0,3.744,0.51,5.367,1.474c5.661,3.364,14.571,7.776,24.868,9.695c5.004,0.933,8.636,5.283,8.636,10.343V69.808z">
                                </path>
                                <path fill="#333333"
                                      d="M80.146,20.328c-10.366-1.932-19.332-6.371-25.027-9.755C53.57,9.653,51.8,9.166,50,9.166   s-3.57,0.486-5.119,1.406c-5.696,3.384-14.661,7.823-25.027,9.755c-4.774,0.89-8.239,5.039-8.239,9.864v39.616   c0,4.826,3.465,8.974,8.239,9.864c10.366,1.932,19.332,6.371,25.027,9.755c1.548,0.92,3.318,1.406,5.119,1.406   s3.57-0.486,5.118-1.406c5.696-3.384,14.661-7.823,25.027-9.755c4.774-0.89,8.239-5.039,8.239-9.864V30.192   C88.384,25.366,84.919,21.218,80.146,20.328z">
                                </path>
                            </g>
                        </svg>
                    </svg>
                </g>
            </g>
            <g transform="translate(20.004016876220703,54.32512283325195)">
                <g fill-rule="" class="tp-name" transform="translate(0,0)">
                    <g transform="scale(1)">
                        <g>
                            <path
                                    d="M8.57 3.12L8.57 3.12Q9.13 3.23 10.13 2.91 11.13 2.6 11.5 2.19L11.5 2.19Q11.65 2 11.67 1.71 11.69 1.41 11.62-0.22L11.62-0.22Q11.47-3.38 11.47-7.48 11.47-11.58 11.62-11.84L11.62-11.84Q11.76-12.17 12.13-12.47 12.51-12.77 14.14-13.73L14.14-13.73Q16.48-15.1 16.48-15.33L16.48-15.33Q16.48-15.4 16.37-15.51L16.37-15.51Q16.29-15.59 14.47-14.99L14.47-14.99Q12.36-14.32 12.02-14.4L12.02-14.4Q11.5-14.47 11.47-15.88L11.47-15.88Q11.47-16.11 11.47-18.18L11.47-18.18Q11.47-21.38 11.69-21.78L11.69-21.78Q11.88-22.15 12.88-22.19L12.88-22.19Q13.1-22.19 13.17-22.19L13.17-22.19Q13.95-22.23 14.42-22.17 14.88-22.12 15.16-21.93 15.44-21.75 15.46-21.47 15.47-21.19 15.25-20.65 15.03-20.11 14.62-19.45 14.21-18.78 13.51-17.74L13.51-17.74Q13.06-17.07 13.03-16.94 12.99-16.81 13.14-16.66L13.14-16.66Q13.54-16.44 15.4-18.29 17.26-20.15 18.59-22.15L18.59-22.15Q19.19-23.01 19.52-23.25 19.85-23.49 20.37-23.49L20.37-23.49Q21.08-23.49 21.21-23.03 21.34-22.56 21-21.26L21-21.26Q20.04-17.44 18.11-13.77 16.18-10.09 13.73-7.46L13.73-7.46Q13.1-6.79 13.32-6.61L13.32-6.61Q13.51-6.46 14.66-7.31L14.66-7.31Q21.23-12.58 24.31-21.56L24.31-21.56Q24.75-22.86 25.09-23.23 25.42-23.6 25.94-23.42L25.94-23.42Q26.35-23.27 26.42-22.77 26.5-22.27 26.27-20.93L26.27-20.93Q25.2-14.58 22.49-9.22 19.78-3.86 15.73-0.11L15.73-0.11Q14.77 0.82 15.25 0.82L15.25 0.82Q15.47 0.85 16.07 0.48L16.07 0.48Q26.53-6.46 29.72-20.97L29.72-20.97Q30.24-23.38 30.73-23.42L30.73-23.42Q30.95-23.42 31.21-23.01L31.21-23.01Q31.54-22.49 30.97-15.42 30.39-8.35 29.76-5.27L29.76-5.27Q29.5-4.12 29.33-3.53 29.17-2.93 28.82-2.38 28.46-1.82 28.13-1.63 27.79-1.45 27-1.34 26.2-1.22 25.38-1.26 24.57-1.3 23.04-1.45L23.04-1.45Q21.75-1.56 21.5-1.54 21.26-1.52 21.26-1.3L21.26-1.3Q21.26-1.11 21.6-1L21.6-1Q24.05-0.41 24.83 0.19 25.61 0.78 25.87 2.3L25.87 2.3Q25.94 2.89 26.83 2.93 27.72 2.97 28.87 2.45 30.02 1.93 30.8 1.11L30.8 1.11Q33.73-1.93 34.55-19.19L34.55-19.19Q34.66-21.93 34.77-22.4 34.88-22.86 35.55-23.16L35.55-23.16Q36.26-23.49 36.2-23.75 36.14-24.01 35.29-24.86L35.29-24.86Q33.81-26.35 33.32-26.48 32.84-26.61 31.99-25.68L31.99-25.68Q31.25-24.9 31.02-24.79L31.02-24.79Q30.5-24.57 27.02-24.57L27.02-24.57Q26.24-24.57 25.64-24.57L25.64-24.57Q25.31-24.57 24.71-24.57L24.71-24.57Q20.93-24.6 20.6-24.86L20.6-24.86Q20.34-25.12 20.78-26.05L20.78-26.05Q20.86-26.24 20.89-26.31L20.89-26.31Q21.15-26.79 21.63-28.13L21.63-28.13Q22.3-29.84 22.82-30.1L22.82-30.1Q23.68-30.47 22.38-31.02L22.38-31.02Q21.71-31.32 20.34-31.77L20.34-31.77Q20.11-31.84 19.82-31.93 19.52-32.03 19.32-32.08 19.11-32.14 19.04-32.17L19.04-32.17Q18.7-32.29 18.61-32.17 18.52-32.06 18.48-31.32L18.48-31.32Q18.29-29.39 17.72-27.02 17.14-24.64 16.74-24.12L16.74-24.12Q16.44-23.71 16.05-23.86 15.66-24.01 14.81-24.9L14.81-24.9Q13.99-25.72 13.82-25.72 13.66-25.72 13.17-24.94L13.17-24.94Q12.36-23.68 11.8-23.71L11.8-23.71Q11.32-23.75 11.43-26.68 11.54-29.61 12.02-30.1L12.02-30.1Q12.62-30.65 11.84-31.06L11.84-31.06Q11.24-31.36 9.2-31.95L9.2-31.95Q8.39-32.17 8.28-32.06 8.16-31.95 8.16-30.73L8.16-30.73Q8.16-29.21 7.87-29.06 7.57-28.91 5.46-29.32L5.46-29.32Q3.86-29.65 3.67-29.58 3.49-29.5 3.56-28.65L3.56-28.65Q3.97-23.82 2.41-17.7L2.41-17.7Q2.04-16.11 2.26-16.03L2.26-16.03Q2.3-16.03 2.45-16.03L2.45-16.03Q2.71-16.07 3.49-17.48 4.27-18.89 4.94-20.52L4.94-20.52Q5.38-21.6 5.7-21.89 6.01-22.19 6.83-22.19L6.83-22.19Q7.72-22.19 8.09-21.71L8.09-21.71Q8.24-21.52 8.29-17.98 8.35-14.44 8.2-13.8L8.2-13.8Q8.13-13.47 8-13.29 7.87-13.1 7.18-12.82 6.49-12.54 5.57-12.28 4.64-12.02 2.49-11.47L2.49-11.47Q2.19-11.39 2.19-11.21L2.19-11.21Q2.19-10.95 2.82-9.28L2.82-9.28Q3.49-7.61 3.64-7.46 3.79-7.31 4.3-7.83L4.3-7.83Q4.94-8.54 6.23-9.2 7.53-9.87 7.87-9.72L7.87-9.72Q8.65-9.35 8.05 0.45L8.05 0.45Q7.94 2.3 8.02 2.65 8.09 3.01 8.57 3.12ZM7.83-23.45L7.83-23.45Q7.57-23.27 7.14-23.27 6.72-23.27 6.46-23.45L6.46-23.45Q5.94-23.86 6.53-25.88 7.13-27.91 7.76-27.83L7.76-27.83Q8.28-27.76 8.31-25.77 8.35-23.79 7.83-23.45ZM53.4 2.49L53.4 2.49Q53.47 3.08 53.62 3.14 53.77 3.19 54.74 3.01L54.74 3.01Q57.78 2.49 58.56 0.93L58.56 0.93Q58.93 0.22 58.97-1.3 59-2.82 59.04-14.55L59.04-14.55Q59.08-25.61 59.13-27.5 59.19-29.39 59.56-29.58L59.56-29.58Q59.67-29.61 59.71-29.65L59.71-29.65Q60.38-30.06 59.12-30.54L59.12-30.54Q58.34-30.84 56.44-31.32L56.44-31.32Q55.11-31.65 55.07-31.47L55.07-31.47Q55.03-31.39 55.07-31.25L55.07-31.25Q55.4-29.09 55.5-15.72 55.59-2.34 55.29-1.82L55.29-1.82Q55-1.34 54.38-1.28 53.77-1.22 50.91-1.37L50.91-1.37Q48.21-1.56 48.17-1.45L48.17-1.45Q47.98-1.19 48.58-1L48.58-1Q48.8-0.96 49.13-0.89L49.13-0.89Q51.1-0.52 52.1 0.28 53.1 1.08 53.4 2.49ZM40-5.68L40-5.68Q40.15-5.57 40.26-5.62 40.38-5.68 41.01-6.12L41.01-6.12Q46.16-10.02 50.1-17.81L50.1-17.81Q50.77-19.11 51.01-19.48 51.25-19.85 51.58-20L51.58-20Q52.32-20.34 51.54-20.74L51.54-20.74Q51.14-20.93 50.28-21.23L50.28-21.23Q49.8-21.41 48.32-22.08L48.32-22.08Q47.02-22.64 46.91-22.49L46.91-22.49Q46.83-22.41 46.79-21.93L46.79-21.93Q46.5-18.55 44.72-14.21 42.94-9.87 40.56-6.68L40.56-6.68Q40.41-6.49 40.23-6.23L40.23-6.23Q39.89-5.79 40-5.68ZM71.14-6.53L71.14-6.53Q72.29-6.16 72.94-7.33 73.59-8.5 73.29-10.35L73.29-10.35Q72.81-13.1 70.64-15.83 68.47-18.55 64.94-20.82L64.94-20.82Q62.68-22.3 62.71-21.89L62.71-21.89Q62.71-21.67 63.31-20.89L63.31-20.89Q68.5-14.18 69.95-7.42L69.95-7.42Q70.1-6.87 71.14-6.53ZM95.82 1.67L95.82 1.67Q98.34 1.82 103.65 1.71 108.95 1.6 110.29 1.34L110.29 1.34Q111.7 1.08 112.07 0.2 112.44-0.67 111.44-1.34L111.44-1.34Q110.88-1.74 110.73-2.41 110.59-3.08 110.59-5.49L110.59-5.49Q110.59-6.46 110.47-6.83 110.36-7.2 110.18-6.88 109.99-6.57 109.77-5.64L109.77-5.64Q108.99-2.78 108.77-2.34L108.77-2.34Q108.25-1.45 106.62-1.34L106.62-1.34Q105.95-1.26 101.98-1.26L101.98-1.26Q97.78-1.26 97.08-1.3 96.37-1.34 96.08-1.56L96.08-1.56Q95.74-1.86 95.71-2.45L95.71-2.45Q95.59-3.3 95.59-8.65L95.59-8.65Q95.59-13.99 95.59-14.14L95.59-14.14Q95.74-15.47 96.52-15.73L96.52-15.73Q96.93-15.85 99.71-15.81L99.71-15.81Q100.08-15.81 100.42-15.81L100.42-15.81Q100.71-15.81 101.23-15.81L101.23-15.81Q104.31-15.81 104.8-15.62 105.28-15.44 105.21-14.32L105.21-14.32Q105.21-14.14 105.21-14.06L105.21-14.06Q105.13-12.88 105.82-12.71 106.5-12.54 108.1-13.32L108.1-13.32Q108.77-13.62 108.84-13.86 108.92-14.1 108.84-15.36L108.84-15.36Q108.66-19 108.64-22.6 108.62-26.2 108.8-26.57L108.8-26.57Q108.88-26.72 109.14-26.96 109.4-27.2 109.47-27.2 109.55-27.2 109.92-27.46 110.29-27.72 110.33-27.79L110.33-27.79Q110.4-28.05 109.4-28.96 108.4-29.87 107.28-30.62L107.28-30.62Q106.84-30.91 106.62-30.84 106.39-30.76 105.84-30.1L105.84-30.1Q104.95-29.02 104.43-28.87L104.43-28.87Q103.98-28.72 97.69-28.82 91.4-28.91 90.51-29.06L90.51-29.06Q90.21-29.09 90.19-28.96 90.18-28.83 90.47-28.31L90.47-28.31Q90.88-27.46 91.07-27.37 91.25-27.28 92.37-27.42L92.37-27.42Q95.15-27.76 100.05-27.76L100.05-27.76Q100.71-27.76 101.64-27.76 102.57-27.76 102.9-27.79 103.24-27.83 103.79-27.74 104.35-27.65 104.46-27.65 104.57-27.65 104.87-27.37 105.17-27.09 105.15-26.94 105.13-26.79 105.22-26.22 105.32-25.64 105.28-25.29 105.24-24.94 105.24-23.99 105.24-23.04 105.24-22.34L105.24-22.34Q105.24-18.37 105.17-18L105.17-18Q105.02-17.11 104.17-16.92L104.17-16.92Q103.68-16.88 100.42-16.88L100.42-16.88Q96.86-16.88 96.28-16.96 95.71-17.03 93.89-17.78L93.89-17.78Q93.44-17.96 92.96-18.17 92.48-18.37 92.22-18.48L92.22-18.48 91.96-18.55Q91.85-18.55 92.07-16.33L92.07-16.33Q92.07-16.29 92.07-16.22L92.07-16.22Q92.18-15.25 92.22-11.37 92.25-7.5 92.29-4.03 92.33-0.56 92.4-0.3L92.4-0.3Q92.66 0.67 93.44 1.11 94.22 1.56 95.82 1.67ZM83.9 1.48L83.9 1.48Q84.05 1.71 84.28 1.41 84.5 1.11 85.05 0.26L85.05 0.26Q85.54-0.41 86.17-1.15L86.17-1.15Q91.59-7.27 90.99-7.38L90.99-7.38Q90.73-7.46 89.54-6.68L89.54-6.68Q87.58-5.38 87.32-5.31L87.32-5.31Q86.72-5.12 86.58-6.01L86.58-6.01Q86.46-6.72 86.43-12.39L86.43-12.39Q86.43-19.04 86.54-19.52L86.54-19.52Q86.65-19.85 87.06-20.04L87.06-20.04Q87.13-20.08 87.17-20.11L87.17-20.11Q87.8-20.45 87.62-20.87 87.43-21.3 86.21-22.41L86.21-22.41Q85.2-23.34 84.91-23.36 84.61-23.38 84.02-22.6L84.02-22.6Q83.27-21.67 82.48-21.52 81.68-21.38 79.15-21.6L79.15-21.6Q78.15-21.67 78.06-21.6 77.97-21.52 78.34-20.78L78.34-20.78Q78.67-20.11 78.84-20 79.01-19.89 79.34-20.04L79.34-20.04Q80.71-20.48 81.79-20.37 82.87-20.26 83.01-19.67L83.01-19.67Q83.16-19.22 83.13-11.6 83.09-3.97 82.94-3.67L82.94-3.67Q82.68-3.08 82.09-2.63L82.09-2.63Q81.71-2.38 81.71-2.23L81.71-2.23Q81.71-2.12 82.74-0.37 83.76 1.37 83.9 1.48ZM85.98-24.34L85.98-24.34Q86.98-23.86 87.78-24.4 88.58-24.94 88.58-26.09L88.58-26.09Q88.58-27.83 86.78-29.39 84.98-30.95 82.05-31.77L82.05-31.77Q81.27-31.99 81.14-31.84 81.01-31.69 81.49-31.13L81.49-31.13Q82.57-29.95 83.7-28.22 84.83-26.5 85.35-25.16L85.35-25.16Q85.65-24.49 85.83-24.42L85.83-24.42Q85.91-24.38 85.98-24.34Z"
                                    transform="translate(-2.1779661178588867, 32.22999954223633)"></path>
                        </g>
                    </g>
                </g>
                <g fill-rule="evenodd" class="tp-slogan" fill="#f9c7cf"
                   transform="translate(-6.654018402099609,44.38087463378906)">
                    <rect width="0" height="0"></rect>
                    <rect x="126.30000305175781" width="0" height="0"></rect>
                    <g transform="translate(0,0)">
                        <g transform="scale(1)">
                            <path
                                    d="M 50.6 8.9 L 50.5 10.5 L 52.5 10.7 A 11.1 11.1 0 0 0 54.2 10.7 L 54.3 10.7 L 54.3 11.8 L 54.2 11.7 A 14.1 14.1 0 0 0 52.4 11.5 L 50.4 11.3 L 50.3 13.5 L 51.8 13.6 Q 52.8 13.7 53.4 13.7 L 53.5 13.7 L 53.4 14.7 L 53.3 14.7 A 9.9 9.9 0 0 0 51.8 14.5 L 50.2 14.4 L 50 16.9 L 52.6 17.1 A 12.2 12.2 0 0 0 54.2 17.2 L 54.3 17.2 L 54.2 18.2 L 54.1 18.2 A 10.9 10.9 0 0 0 52.5 18 L 45.8 17.4 Q 45 17.3 44.2 17.3 L 44.1 17.3 L 44.1 16.3 L 44.3 16.3 A 12.9 12.9 0 0 0 45.9 16.6 L 49 16.8 L 49.2 14.3 L 47.8 14.2 Q 46.9 14.1 46.2 14.1 L 46.1 14.1 L 46.2 13 L 46.3 13.1 A 12.5 12.5 0 0 0 47.8 13.3 L 49.3 13.4 L 49.5 11.3 L 46.7 11 A 81.5 81.5 0 0 1 45.4 12.7 A 4.5 4.5 0 0 0 44.7 12.4 L 44.4 12.3 A 8 8 0 0 0 46.8 8.2 A 2.5 2.5 0 0 1 48.2 8.8 Q 48.2 8.8 48 9 A 4.3 4.3 0 0 0 47.1 10.2 L 49.5 10.4 L 49.7 8.7 A 5.8 5.8 0 0 0 49.7 7.6 L 49.7 7.5 Q 50.9 7.6 51.1 7.8 A 0.3 0.3 0 0 1 51 7.9 A 1.7 1.7 0 0 0 50.6 8.9 Z M 80.7 8.9 L 82.4 8.6 A 20.5 20.5 0 0 0 84 8.4 A 1337 1337 0 0 1 84.3 13.3 A 140.3 140.3 0 0 1 84.4 15.6 A 2.2 2.2 0 0 1 82 17.3 A 2.7 2.7 0 0 0 81.3 16.2 A 5.7 5.7 0 0 0 82.3 16.2 A 2.3 2.3 0 0 0 83.2 15.9 A 0.1 0.1 0 0 0 83.2 15.9 Q 83.4 15.9 83.3 13.5 A 72.2 72.2 0 0 0 83.1 11.7 A 256.2 256.2 0 0 0 83 9.3 L 80.4 9.6 A 91.7 91.7 0 0 1 79.6 11.8 Q 79.1 11.6 78.7 11.6 L 79.2 15.7 A 14.2 14.2 0 0 0 79.4 17.2 L 78.4 17.4 Q 78.4 16.9 78.3 16.2 L 76 16.5 A 13.7 13.7 0 0 0 76.2 17.7 L 75.1 17.9 Q 75.1 17.4 75 16.3 L 74.4 11.3 Q 74.3 11.2 74.2 10.5 L 74.1 9.7 A 17.3 17.3 0 0 0 75.1 9.6 L 75.5 9.6 Q 75.5 8.8 75.4 7.3 A 1.9 1.9 0 0 1 76.7 7.4 A 0.1 0.1 0 0 1 76.7 7.5 A 0.3 0.3 0 0 1 76.6 7.7 Q 76.5 7.8 76.5 7.9 A 5.8 5.8 0 0 0 76.3 8.9 A 13.7 13.7 0 0 0 76.3 9.5 L 77 9.4 Q 77.4 9.4 78.4 9.2 Q 78.4 9.5 78.6 10.7 L 78.7 11.3 Q 79.9 9.5 80.1 6.6 A 2.9 2.9 0 0 1 81.4 6.9 A 0.1 0.1 0 0 1 81.3 7 A 0.4 0.4 0 0 0 81.1 7.3 A 6.7 6.7 0 0 0 80.7 8.9 Z M 106.5 0.8 L 107.4 0.1 A 9 9 0 0 1 108.3 1.3 L 110 0.8 A 26.1 26.1 0 0 0 111.7 0 L 112.1 0.9 A 25.4 25.4 0 0 1 111 1.3 L 110.3 1.5 L 104.5 3.5 L 104.9 4.7 L 106.6 4.1 A 9.6 9.6 0 0 0 106.2 3.1 A 9.3 9.3 0 0 1 106.6 3 A 1 1 0 0 1 107.3 2.9 Q 107.3 2.9 107.3 3.1 A 0.5 0.5 0 0 0 107.3 3.3 L 107.4 3.8 L 109.7 3 A 6.3 6.3 0 0 0 109.4 2 A 1.8 1.8 0 0 1 110.4 1.8 A 0 0 0 0 1 110.5 1.9 A 0.2 0.2 0 0 1 110.4 2 A 0.3 0.3 0 0 0 110.4 2.1 Q 110.4 2.4 110.5 2.7 L 111.1 2.5 A 15.1 15.1 0 0 0 112 2.2 L 112.7 2 L 112.9 2.8 A 37.8 37.8 0 0 0 111.3 3.3 L 110.8 3.4 L 111 4.2 A 4.4 4.4 0 0 0 111.5 5.1 A 46.2 46.2 0 0 0 110 5.6 L 108.6 6 A 10.8 10.8 0 0 0 107.4 6.5 A 9.9 9.9 0 0 0 107.1 5.4 L 106.8 4.8 L 105.1 5.4 A 16.9 16.9 0 0 1 105.9 8.5 Q 106.1 10.5 105.8 11.8 A 2.9 2.9 0 0 0 104.7 11.5 Q 105.2 9.7 105 8.4 A 18.9 18.9 0 0 0 104.2 5.6 A 93.5 93.5 0 0 0 103.2 2.9 A 16.4 16.4 0 0 0 104.4 2.6 A 5.1 5.1 0 0 0 105 2.4 L 107.4 1.6 A 10 10 0 0 0 106.7 1 A 2.3 2.3 0 0 1 106.5 0.8 Z M 66 9.3 L 66.1 11.1 L 68 11.1 A 10.5 10.5 0 0 0 69.5 10.9 L 69.6 10.9 L 69.7 12.1 L 69.6 12.1 A 11.1 11.1 0 0 0 68 12 L 66.1 12 L 66.1 13.6 L 67.3 13.6 A 5.9 5.9 0 0 0 68.6 13.5 A 6.9 6.9 0 0 0 68.5 14.9 L 68.5 16.5 A 96.2 96.2 0 0 0 68.6 18 L 68.7 18.4 L 67.5 18.4 A 2.7 2.7 0 0 0 67.6 17.5 L 63.9 17.5 A 3 3 0 0 0 64 18.5 L 62.8 18.5 L 62.8 18.3 A 9.6 9.6 0 0 0 62.9 16.9 L 62.8 15 A 5.8 5.8 0 0 0 62.7 13.6 A 6.5 6.5 0 0 0 64 13.6 L 65.1 13.6 L 65.1 12.1 L 63.5 12.1 A 9.3 9.3 0 0 0 62.1 12.3 L 61.9 12.3 L 61.9 11.1 L 62 11.1 A 9.7 9.7 0 0 0 63.5 11.2 L 65.1 11.1 L 65.1 9.5 A 149.3 149.3 0 0 1 62.7 9.9 A 4.7 4.7 0 0 0 62.2 9.1 L 62.1 8.9 A 20.4 20.4 0 0 0 62.5 8.9 A 18.4 18.4 0 0 0 68 7.9 A 3.7 3.7 0 0 1 68.6 9 L 68.5 9 A 2.3 2.3 0 0 0 68.1 9 A 2.3 2.3 0 0 0 67.8 9.1 A 7.4 7.4 0 0 0 67.1 9.2 Q 66.4 9.3 66 9.3 Z M 34.2 7.2 L 33.6 10 A 5.4 5.4 0 0 0 33.4 11.3 L 32.3 11.1 A 1.1 1.1 0 0 0 32.5 10.4 L 29.5 9.7 L 28.8 13 Q 28.5 13.8 29.3 14 A 1.6 1.6 0 0 0 29.4 14 L 31.4 14.5 A 1.2 1.2 0 0 0 32.8 13.2 Q 33.2 13.8 33.7 14.1 Q 33.7 14.2 33.7 14.3 A 1.4 1.4 0 0 1 32 15.4 A 1.7 1.7 0 0 1 32 15.4 L 28.6 14.6 Q 27.4 14.4 27.7 13.4 L 28.5 9.7 A 11.5 11.5 0 0 0 28.7 8.6 A 5.1 5.1 0 0 0 29.9 8.9 L 32.7 9.6 L 33.3 6.9 L 30.6 6.3 A 6.7 6.7 0 0 0 29.1 6.1 L 29.3 5 A 6.7 6.7 0 0 0 30.8 5.5 L 33.4 6.1 A 7.7 7.7 0 0 0 34.6 6.2 A 3.2 3.2 0 0 0 34.2 7.2 Z M 106.8 8.1 L 106.5 7.3 Q 106.9 7.2 108 6.8 L 110.2 6.1 A 31.7 31.7 0 0 0 112.2 5.3 A 0.1 0.1 0 0 1 112.3 5.4 Q 111.9 7.2 111 8.4 A 12.2 12.2 0 0 0 114.7 7.9 A 3.2 3.2 0 0 0 114.2 9.1 A 20.8 20.8 0 0 1 110.7 9.2 A 1.8 1.8 0 0 1 110.4 9.2 Q 109 10.4 107.4 11.3 A 1.4 1.4 0 0 1 107.2 11.2 A 2.8 2.8 0 0 0 106.3 10.7 Q 108.1 10.1 109.6 9 A 9.8 9.8 0 0 1 107.6 8.2 L 108.3 7.5 L 108.1 7.6 Q 107.8 7.7 107.4 7.9 L 106.8 8.1 Z M 98.8 10.2 L 99.3 12.5 A 4.3 4.3 0 0 0 100.2 12.2 L 100.2 12.2 L 100.4 13 A 12.7 12.7 0 0 0 99.1 13.2 L 93.4 14.6 A 12.6 12.6 0 0 0 92.2 14.9 A 5 5 0 0 0 92.4 14.8 Q 92.4 14.8 92.1 15 L 91.9 14.1 A 3.3 3.3 0 0 0 92.8 14 L 92.3 11.7 Q 92.2 11.1 92 10.5 L 92.1 10.5 A 6 6 0 0 0 93.1 10.4 L 97.4 9.4 A 7.2 7.2 0 0 0 98.6 9 L 98.6 9.2 A 5.5 5.5 0 0 0 98.8 10.2 Z M 16.5 2.4 L 14 9.7 A 0.4 0.4 0 0 1 13.9 9.9 A 2.3 2.3 0 0 1 11.5 9.8 A 2 2 0 0 0 11.4 8.5 A 7.7 7.7 0 0 0 12.3 8.8 Q 13 9.1 13.1 8.8 A 0.3 0.3 0 0 0 13.1 8.7 L 15.4 2.1 A 8 8 0 0 0 15.8 0.3 A 5.1 5.1 0 0 1 17.3 1 A 0.4 0.4 0 0 1 17.2 1.1 A 2.9 2.9 0 0 0 16.5 2.4 Z M 24.1 7.6 L 24.3 6.6 Q 24.4 6.8 25.6 7 L 26 7.1 A 5 5 0 0 0 27 7.3 L 27 7.4 Q 26.8 7.8 26.8 8.2 L 25.9 11.9 A 21.7 21.7 0 0 0 27.4 11 L 27.6 12.1 Q 26 12.8 25 13.4 L 24.5 12.4 A 1.3 1.3 0 0 0 25 11.6 L 25.8 7.9 L 25.4 7.8 Q 24.2 7.6 24.1 7.6 Z M 92.8 5.1 L 95.5 4.5 A 6.8 6.8 0 0 0 96.9 4.1 A 14.7 14.7 0 0 0 97.2 5.3 L 97.6 7.1 Q 97.7 7.7 97.9 8.2 L 97.9 8.3 Q 97.9 8.3 96.4 8.6 L 93.8 9.2 Q 93.1 9.4 92.4 9.6 L 92.3 9.6 A 16.4 16.4 0 0 0 92 8.2 L 91.6 6.4 A 10 10 0 0 0 91.4 5.6 L 91.3 5.4 A 9.7 9.7 0 0 0 92.8 5.1 Z M 12.5 2 Q 13.6 2.6 13.7 2.8 A 0.1 0.1 0 0 1 13.6 2.9 A 2.2 2.2 0 0 0 13 3.5 A 81.5 81.5 0 0 1 9.8 7.2 Q 9.3 6.6 8.6 6.4 A 11.4 11.4 0 0 0 12.5 2 Z M 17.1 4.1 L 18.2 3.9 A 41 41 0 0 1 19.1 9.5 L 17.7 9.6 Q 17.7 6.5 17.1 4.1 Z M 5.9 3 L 5.5 3.8 L 0 1.4 L 0.4 0.5 L 5.9 3 Z M 122.9 0.5 L 123.3 1.4 L 117.8 3.8 L 117.4 3 L 122.9 0.5 Z M 67.5 16.7 L 67.5 14.5 L 63.8 14.5 L 63.8 16.7 L 67.5 16.7 Z M 60.5 13.6 L 61.6 14 Q 61.5 14.7 61.2 15.6 A 30.6 30.6 0 0 1 60.8 17.5 A 1.6 1.6 0 0 0 60.7 18.2 A 1 1 0 0 1 60.6 18.6 A 0 0 0 0 1 60.6 18.6 A 4 4 0 0 1 59.5 17.8 Q 60.2 16.1 60.5 13.6 Z M 90.3 10.7 L 91.3 11.1 A 1295.5 1295.5 0 0 0 91.1 14.6 Q 91.1 14.9 91.1 15.3 A 0.4 0.4 0 0 1 91.1 15.6 L 89.9 15.1 A 18.7 18.7 0 0 0 90.3 10.7 Z M 96.2 5.1 L 92.5 6 L 92.7 7 L 96.4 6.1 L 96.2 5.1 Z M 77.5 10.1 L 75.2 10.4 L 75.5 12.8 L 77.8 12.5 L 77.5 10.1 Z M 96.6 6.8 L 92.9 7.6 L 93.1 8.6 L 96.8 7.8 L 96.6 6.8 Z M 77.9 13.2 L 75.6 13.5 L 75.9 15.8 L 78.2 15.5 L 77.9 13.2 Z M 38.7 15.8 L 38.1 15.7 L 38.2 14.4 L 39.5 14.6 L 39.3 15.8 A 1.6 1.6 0 0 1 37.8 17.3 L 37.9 16.7 A 0.9 0.9 0 0 0 38.7 15.8 Z M 97.8 10.1 L 96.8 10.4 L 97.4 12.9 L 98.4 12.7 L 97.8 10.1 Z M 96 10.5 L 95 10.8 L 95.6 13.3 L 96.6 13.1 L 96 10.5 Z M 94.7 13.5 L 94.1 11 L 93.1 11.2 L 93.7 13.8 L 94.7 13.5 Z M 88.4 6.4 L 88.9 5.4 A 48.2 48.2 0 0 1 91.2 6.4 L 90.7 7.5 A 11.1 11.1 0 0 0 88.4 6.4 Z M 88.3 9.2 L 88.8 8.2 A 17.5 17.5 0 0 1 91.1 8.9 L 90.6 10 A 9.1 9.1 0 0 0 88.3 9.2 Z M 26.1 4.1 L 27.2 3.8 A 17.8 17.8 0 0 1 27.9 6.1 L 26.7 6.3 A 6.4 6.4 0 0 0 26.1 4.1 Z M 110 3.7 L 107.7 4.5 L 108 5.5 L 110.3 4.7 L 110 3.7 Z M 108.3 7.5 A 5.3 5.3 0 0 0 110.2 8.3 A 4.7 4.7 0 0 0 111.1 6.6 L 108.3 7.5 Z M 80 12.2 L 80.7 11.6 A 15.5 15.5 0 0 1 81.9 13.2 A 2.1 2.1 0 0 1 82.2 13.6 L 81.4 14.2 A 10.2 10.2 0 0 0 80 12.2 Z M 59.5 9.1 L 60.2 8.2 A 20.8 20.8 0 0 1 62.1 9.4 L 61.5 10.3 A 8.9 8.9 0 0 0 59.5 9.1 Z M 59 12 L 59.5 11.1 Q 60.6 11.5 61.5 12.1 L 61 13.1 A 7.7 7.7 0 0 0 59 12 Z">
                            </path>
                        </g>
                    </g>
                </g>
            </g>
        </g>
    </g>
    <defs></defs>
    <mask id="2e7a7a7e-cf1a-4ea4-a3d9-fbea6707fd3e">
        <g fill="white">
            <g>
                <rect fill-opacity="0" stroke-width="2" x="0" y="0" width="149.99999999999952"
                      height="158.63111919542246" class="image-rect"></rect>
                <svg x="0" y="0" width="149.99999999999952"
                     height="158.63111919542246" class="image-svg-svg primary"
                     style="overflow: visible;">
                    <svg xmlns="http://www.w3.org/2000/svg"
                        xmlns:xlink="http://www.w3.org/1999/xlink" version="1.1" x="0px" y="0px"
                        viewBox="7.448993682861328 5.000499725341797 85.10200500488281 89.99899291992188"
                        enable-background="new 0 0 100 100" xml:space="preserve">
                        <g>
                            <path fill="none"
                                  d="M80.235,19.849c-10.296-1.919-19.206-6.332-24.868-9.695C53.744,9.189,51.888,8.679,50,8.679   c-1.888,0-3.744,0.51-5.367,1.474c-5.662,3.364-14.572,7.776-24.868,9.695c-5.004,0.933-8.637,5.283-8.637,10.343v39.616   c0,5.06,3.632,9.41,8.637,10.343c10.296,1.919,19.206,6.332,24.867,9.695c1.624,0.965,3.48,1.474,5.367,1.474   c1.888,0,3.744-0.51,5.367-1.474c5.662-3.364,14.572-7.776,24.868-9.695c5.004-0.933,8.636-5.283,8.636-10.343V30.192   C88.871,25.132,85.239,20.782,80.235,19.849z M88.384,69.808c0,4.826-3.465,8.974-8.239,9.864   c-10.366,1.932-19.332,6.371-25.027,9.755C53.57,90.347,51.8,90.834,50,90.834s-3.57-0.486-5.119-1.406   c-5.695-3.384-14.661-7.823-25.027-9.755c-4.774-0.89-8.239-5.039-8.239-9.864V30.192c0-4.826,3.465-8.974,8.239-9.864   c10.366-1.932,19.332-6.371,25.027-9.755C46.43,9.653,48.2,9.166,50,9.166s3.57,0.486,5.119,1.406   c5.695,3.384,14.661,7.823,25.027,9.755c4.774,0.89,8.239,5.039,8.239,9.864V69.808z">
                            </path>
                            <path
                                    d="M80.909,16.232c-9.675-1.803-18.072-5.92-23.662-9.241c-4.467-2.654-10.026-2.654-14.493,0   c-5.59,3.321-13.987,7.438-23.663,9.241c-6.738,1.256-11.642,7.106-11.642,13.96v39.616c0,6.854,4.904,12.704,11.642,13.96   c9.675,1.803,18.072,5.92,23.663,9.241c4.467,2.654,10.026,2.654,14.493,0c5.59-3.321,13.987-7.438,23.662-9.241   c6.738-1.256,11.642-7.106,11.642-13.96V30.192C92.551,23.338,87.647,17.488,80.909,16.232z M88.871,69.808   c0,5.06-3.632,9.41-8.636,10.343c-10.296,1.919-19.206,6.332-24.868,9.695C53.744,90.811,51.888,91.32,50,91.32   c-1.888,0-3.744-0.51-5.367-1.474c-5.661-3.364-14.572-7.776-24.867-9.695c-5.004-0.933-8.637-5.283-8.637-10.343V30.192   c0-5.06,3.632-9.41,8.637-10.343c10.296-1.919,19.206-6.332,24.868-9.695C46.256,9.189,48.112,8.679,50,8.679   c1.888,0,3.744,0.51,5.367,1.474c5.661,3.364,14.571,7.776,24.868,9.695c5.004,0.933,8.636,5.283,8.636,10.343V69.808z">
                            </path>
                            <path
                                    d="M80.146,20.328c-10.366-1.932-19.332-6.371-25.027-9.755C53.57,9.653,51.8,9.166,50,9.166   s-3.57,0.486-5.119,1.406c-5.696,3.384-14.661,7.823-25.027,9.755c-4.774,0.89-8.239,5.039-8.239,9.864v39.616   c0,4.826,3.465,8.974,8.239,9.864c10.366,1.932,19.332,6.371,25.027,9.755c1.548,0.92,3.318,1.406,5.119,1.406   s3.57-0.486,5.118-1.406c5.696-3.384,14.661-7.823,25.027-9.755c4.774-0.89,8.239-5.039,8.239-9.864V30.192   C88.384,25.366,84.919,21.218,80.146,20.328z">
                            </path>
                        </g>
                    </svg>
                </svg>
            </g>
        </g>
        <g transform="translate(20.004016876220703,54.32512283325195)" fill="black">
            <g class="tp-name" transform="translate(0,0)">
                <g transform="scale(1)">
                    <g>
                        <path
                                d="M8.57 3.12L8.57 3.12Q9.13 3.23 10.13 2.91 11.13 2.6 11.5 2.19L11.5 2.19Q11.65 2 11.67 1.71 11.69 1.41 11.62-0.22L11.62-0.22Q11.47-3.38 11.47-7.48 11.47-11.58 11.62-11.84L11.62-11.84Q11.76-12.17 12.13-12.47 12.51-12.77 14.14-13.73L14.14-13.73Q16.48-15.1 16.48-15.33L16.48-15.33Q16.48-15.4 16.37-15.51L16.37-15.51Q16.29-15.59 14.47-14.99L14.47-14.99Q12.36-14.32 12.02-14.4L12.02-14.4Q11.5-14.47 11.47-15.88L11.47-15.88Q11.47-16.11 11.47-18.18L11.47-18.18Q11.47-21.38 11.69-21.78L11.69-21.78Q11.88-22.15 12.88-22.19L12.88-22.19Q13.1-22.19 13.17-22.19L13.17-22.19Q13.95-22.23 14.42-22.17 14.88-22.12 15.16-21.93 15.44-21.75 15.46-21.47 15.47-21.19 15.25-20.65 15.03-20.11 14.62-19.45 14.21-18.78 13.51-17.74L13.51-17.74Q13.06-17.07 13.03-16.94 12.99-16.81 13.14-16.66L13.14-16.66Q13.54-16.44 15.4-18.29 17.26-20.15 18.59-22.15L18.59-22.15Q19.19-23.01 19.52-23.25 19.85-23.49 20.37-23.49L20.37-23.49Q21.08-23.49 21.21-23.03 21.34-22.56 21-21.26L21-21.26Q20.04-17.44 18.11-13.77 16.18-10.09 13.73-7.46L13.73-7.46Q13.1-6.79 13.32-6.61L13.32-6.61Q13.51-6.46 14.66-7.31L14.66-7.31Q21.23-12.58 24.31-21.56L24.31-21.56Q24.75-22.86 25.09-23.23 25.42-23.6 25.94-23.42L25.94-23.42Q26.35-23.27 26.42-22.77 26.5-22.27 26.27-20.93L26.27-20.93Q25.2-14.58 22.49-9.22 19.78-3.86 15.73-0.11L15.73-0.11Q14.77 0.82 15.25 0.82L15.25 0.82Q15.47 0.85 16.07 0.48L16.07 0.48Q26.53-6.46 29.72-20.97L29.72-20.97Q30.24-23.38 30.73-23.42L30.73-23.42Q30.95-23.42 31.21-23.01L31.21-23.01Q31.54-22.49 30.97-15.42 30.39-8.35 29.76-5.27L29.76-5.27Q29.5-4.12 29.33-3.53 29.17-2.93 28.82-2.38 28.46-1.82 28.13-1.63 27.79-1.45 27-1.34 26.2-1.22 25.38-1.26 24.57-1.3 23.04-1.45L23.04-1.45Q21.75-1.56 21.5-1.54 21.26-1.52 21.26-1.3L21.26-1.3Q21.26-1.11 21.6-1L21.6-1Q24.05-0.41 24.83 0.19 25.61 0.78 25.87 2.3L25.87 2.3Q25.94 2.89 26.83 2.93 27.72 2.97 28.87 2.45 30.02 1.93 30.8 1.11L30.8 1.11Q33.73-1.93 34.55-19.19L34.55-19.19Q34.66-21.93 34.77-22.4 34.88-22.86 35.55-23.16L35.55-23.16Q36.26-23.49 36.2-23.75 36.14-24.01 35.29-24.86L35.29-24.86Q33.81-26.35 33.32-26.48 32.84-26.61 31.99-25.68L31.99-25.68Q31.25-24.9 31.02-24.79L31.02-24.79Q30.5-24.57 27.02-24.57L27.02-24.57Q26.24-24.57 25.64-24.57L25.64-24.57Q25.31-24.57 24.71-24.57L24.71-24.57Q20.93-24.6 20.6-24.86L20.6-24.86Q20.34-25.12 20.78-26.05L20.78-26.05Q20.86-26.24 20.89-26.31L20.89-26.31Q21.15-26.79 21.63-28.13L21.63-28.13Q22.3-29.84 22.82-30.1L22.82-30.1Q23.68-30.47 22.38-31.02L22.38-31.02Q21.71-31.32 20.34-31.77L20.34-31.77Q20.11-31.84 19.82-31.93 19.52-32.03 19.32-32.08 19.11-32.14 19.04-32.17L19.04-32.17Q18.7-32.29 18.61-32.17 18.52-32.06 18.48-31.32L18.48-31.32Q18.29-29.39 17.72-27.02 17.14-24.64 16.74-24.12L16.74-24.12Q16.44-23.71 16.05-23.86 15.66-24.01 14.81-24.9L14.81-24.9Q13.99-25.72 13.82-25.72 13.66-25.72 13.17-24.94L13.17-24.94Q12.36-23.68 11.8-23.71L11.8-23.71Q11.32-23.75 11.43-26.68 11.54-29.61 12.02-30.1L12.02-30.1Q12.62-30.65 11.84-31.06L11.84-31.06Q11.24-31.36 9.2-31.95L9.2-31.95Q8.39-32.17 8.28-32.06 8.16-31.95 8.16-30.73L8.16-30.73Q8.16-29.21 7.87-29.06 7.57-28.91 5.46-29.32L5.46-29.32Q3.86-29.65 3.67-29.58 3.49-29.5 3.56-28.65L3.56-28.65Q3.97-23.82 2.41-17.7L2.41-17.7Q2.04-16.11 2.26-16.03L2.26-16.03Q2.3-16.03 2.45-16.03L2.45-16.03Q2.71-16.07 3.49-17.48 4.27-18.89 4.94-20.52L4.94-20.52Q5.38-21.6 5.7-21.89 6.01-22.19 6.83-22.19L6.83-22.19Q7.72-22.19 8.09-21.71L8.09-21.71Q8.24-21.52 8.29-17.98 8.35-14.44 8.2-13.8L8.2-13.8Q8.13-13.47 8-13.29 7.87-13.1 7.18-12.82 6.49-12.54 5.57-12.28 4.64-12.02 2.49-11.47L2.49-11.47Q2.19-11.39 2.19-11.21L2.19-11.21Q2.19-10.95 2.82-9.28L2.82-9.28Q3.49-7.61 3.64-7.46 3.79-7.31 4.3-7.83L4.3-7.83Q4.94-8.54 6.23-9.2 7.53-9.87 7.87-9.72L7.87-9.72Q8.65-9.35 8.05 0.45L8.05 0.45Q7.94 2.3 8.02 2.65 8.09 3.01 8.57 3.12ZM7.83-23.45L7.83-23.45Q7.57-23.27 7.14-23.27 6.72-23.27 6.46-23.45L6.46-23.45Q5.94-23.86 6.53-25.88 7.13-27.91 7.76-27.83L7.76-27.83Q8.28-27.76 8.31-25.77 8.35-23.79 7.83-23.45ZM53.4 2.49L53.4 2.49Q53.47 3.08 53.62 3.14 53.77 3.19 54.74 3.01L54.74 3.01Q57.78 2.49 58.56 0.93L58.56 0.93Q58.93 0.22 58.97-1.3 59-2.82 59.04-14.55L59.04-14.55Q59.08-25.61 59.13-27.5 59.19-29.39 59.56-29.58L59.56-29.58Q59.67-29.61 59.71-29.65L59.71-29.65Q60.38-30.06 59.12-30.54L59.12-30.54Q58.34-30.84 56.44-31.32L56.44-31.32Q55.11-31.65 55.07-31.47L55.07-31.47Q55.03-31.39 55.07-31.25L55.07-31.25Q55.4-29.09 55.5-15.72 55.59-2.34 55.29-1.82L55.29-1.82Q55-1.34 54.38-1.28 53.77-1.22 50.91-1.37L50.91-1.37Q48.21-1.56 48.17-1.45L48.17-1.45Q47.98-1.19 48.58-1L48.58-1Q48.8-0.96 49.13-0.89L49.13-0.89Q51.1-0.52 52.1 0.28 53.1 1.08 53.4 2.49ZM40-5.68L40-5.68Q40.15-5.57 40.26-5.62 40.38-5.68 41.01-6.12L41.01-6.12Q46.16-10.02 50.1-17.81L50.1-17.81Q50.77-19.11 51.01-19.48 51.25-19.85 51.58-20L51.58-20Q52.32-20.34 51.54-20.74L51.54-20.74Q51.14-20.93 50.28-21.23L50.28-21.23Q49.8-21.41 48.32-22.08L48.32-22.08Q47.02-22.64 46.91-22.49L46.91-22.49Q46.83-22.41 46.79-21.93L46.79-21.93Q46.5-18.55 44.72-14.21 42.94-9.87 40.56-6.68L40.56-6.68Q40.41-6.49 40.23-6.23L40.23-6.23Q39.89-5.79 40-5.68ZM71.14-6.53L71.14-6.53Q72.29-6.16 72.94-7.33 73.59-8.5 73.29-10.35L73.29-10.35Q72.81-13.1 70.64-15.83 68.47-18.55 64.94-20.82L64.94-20.82Q62.68-22.3 62.71-21.89L62.71-21.89Q62.71-21.67 63.31-20.89L63.31-20.89Q68.5-14.18 69.95-7.42L69.95-7.42Q70.1-6.87 71.14-6.53ZM95.82 1.67L95.82 1.67Q98.34 1.82 103.65 1.71 108.95 1.6 110.29 1.34L110.29 1.34Q111.7 1.08 112.07 0.2 112.44-0.67 111.44-1.34L111.44-1.34Q110.88-1.74 110.73-2.41 110.59-3.08 110.59-5.49L110.59-5.49Q110.59-6.46 110.47-6.83 110.36-7.2 110.18-6.88 109.99-6.57 109.77-5.64L109.77-5.64Q108.99-2.78 108.77-2.34L108.77-2.34Q108.25-1.45 106.62-1.34L106.62-1.34Q105.95-1.26 101.98-1.26L101.98-1.26Q97.78-1.26 97.08-1.3 96.37-1.34 96.08-1.56L96.08-1.56Q95.74-1.86 95.71-2.45L95.71-2.45Q95.59-3.3 95.59-8.65L95.59-8.65Q95.59-13.99 95.59-14.14L95.59-14.14Q95.74-15.47 96.52-15.73L96.52-15.73Q96.93-15.85 99.71-15.81L99.71-15.81Q100.08-15.81 100.42-15.81L100.42-15.81Q100.71-15.81 101.23-15.81L101.23-15.81Q104.31-15.81 104.8-15.62 105.28-15.44 105.21-14.32L105.21-14.32Q105.21-14.14 105.21-14.06L105.21-14.06Q105.13-12.88 105.82-12.71 106.5-12.54 108.1-13.32L108.1-13.32Q108.77-13.62 108.84-13.86 108.92-14.1 108.84-15.36L108.84-15.36Q108.66-19 108.64-22.6 108.62-26.2 108.8-26.57L108.8-26.57Q108.88-26.72 109.14-26.96 109.4-27.2 109.47-27.2 109.55-27.2 109.92-27.46 110.29-27.72 110.33-27.79L110.33-27.79Q110.4-28.05 109.4-28.96 108.4-29.87 107.28-30.62L107.28-30.62Q106.84-30.91 106.62-30.84 106.39-30.76 105.84-30.1L105.84-30.1Q104.95-29.02 104.43-28.87L104.43-28.87Q103.98-28.72 97.69-28.82 91.4-28.91 90.51-29.06L90.51-29.06Q90.21-29.09 90.19-28.96 90.18-28.83 90.47-28.31L90.47-28.31Q90.88-27.46 91.07-27.37 91.25-27.28 92.37-27.42L92.37-27.42Q95.15-27.76 100.05-27.76L100.05-27.76Q100.71-27.76 101.64-27.76 102.57-27.76 102.9-27.79 103.24-27.83 103.79-27.74 104.35-27.65 104.46-27.65 104.57-27.65 104.87-27.37 105.17-27.09 105.15-26.94 105.13-26.79 105.22-26.22 105.32-25.64 105.28-25.29 105.24-24.94 105.24-23.99 105.24-23.04 105.24-22.34L105.24-22.34Q105.24-18.37 105.17-18L105.17-18Q105.02-17.11 104.17-16.92L104.17-16.92Q103.68-16.88 100.42-16.88L100.42-16.88Q96.86-16.88 96.28-16.96 95.71-17.03 93.89-17.78L93.89-17.78Q93.44-17.96 92.96-18.17 92.48-18.37 92.22-18.48L92.22-18.48 91.96-18.55Q91.85-18.55 92.07-16.33L92.07-16.33Q92.07-16.29 92.07-16.22L92.07-16.22Q92.18-15.25 92.22-11.37 92.25-7.5 92.29-4.03 92.33-0.56 92.4-0.3L92.4-0.3Q92.66 0.67 93.44 1.11 94.22 1.56 95.82 1.67ZM83.9 1.48L83.9 1.48Q84.05 1.71 84.28 1.41 84.5 1.11 85.05 0.26L85.05 0.26Q85.54-0.41 86.17-1.15L86.17-1.15Q91.59-7.27 90.99-7.38L90.99-7.38Q90.73-7.46 89.54-6.68L89.54-6.68Q87.58-5.38 87.32-5.31L87.32-5.31Q86.72-5.12 86.58-6.01L86.58-6.01Q86.46-6.72 86.43-12.39L86.43-12.39Q86.43-19.04 86.54-19.52L86.54-19.52Q86.65-19.85 87.06-20.04L87.06-20.04Q87.13-20.08 87.17-20.11L87.17-20.11Q87.8-20.45 87.62-20.87 87.43-21.3 86.21-22.41L86.21-22.41Q85.2-23.34 84.91-23.36 84.61-23.38 84.02-22.6L84.02-22.6Q83.27-21.67 82.48-21.52 81.68-21.38 79.15-21.6L79.15-21.6Q78.15-21.67 78.06-21.6 77.97-21.52 78.34-20.78L78.34-20.78Q78.67-20.11 78.84-20 79.01-19.89 79.34-20.04L79.34-20.04Q80.71-20.48 81.79-20.37 82.87-20.26 83.01-19.67L83.01-19.67Q83.16-19.22 83.13-11.6 83.09-3.97 82.94-3.67L82.94-3.67Q82.68-3.08 82.09-2.63L82.09-2.63Q81.71-2.38 81.71-2.23L81.71-2.23Q81.71-2.12 82.74-0.37 83.76 1.37 83.9 1.48ZM85.98-24.34L85.98-24.34Q86.98-23.86 87.78-24.4 88.58-24.94 88.58-26.09L88.58-26.09Q88.58-27.83 86.78-29.39 84.98-30.95 82.05-31.77L82.05-31.77Q81.27-31.99 81.14-31.84 81.01-31.69 81.49-31.13L81.49-31.13Q82.57-29.95 83.7-28.22 84.83-26.5 85.35-25.16L85.35-25.16Q85.65-24.49 85.83-24.42L85.83-24.42Q85.91-24.38 85.98-24.34Z"
                                transform="translate(-2.1779661178588867, 32.22999954223633)"></path>
                    </g>
                </g>
            </g>
            <g fill-rule="evenodd" class="tp-slogan"
               transform="translate(-6.654018402099609,44.38087463378906)">
                <rect width="0" height="0"></rect>
                <rect x="126.30000305175781" width="0" height="0"></rect>
                <g transform="translate(0,0)">
                    <g transform="scale(1)">
                        <path
                                d="M 50.6 8.9 L 50.5 10.5 L 52.5 10.7 A 11.1 11.1 0 0 0 54.2 10.7 L 54.3 10.7 L 54.3 11.8 L 54.2 11.7 A 14.1 14.1 0 0 0 52.4 11.5 L 50.4 11.3 L 50.3 13.5 L 51.8 13.6 Q 52.8 13.7 53.4 13.7 L 53.5 13.7 L 53.4 14.7 L 53.3 14.7 A 9.9 9.9 0 0 0 51.8 14.5 L 50.2 14.4 L 50 16.9 L 52.6 17.1 A 12.2 12.2 0 0 0 54.2 17.2 L 54.3 17.2 L 54.2 18.2 L 54.1 18.2 A 10.9 10.9 0 0 0 52.5 18 L 45.8 17.4 Q 45 17.3 44.2 17.3 L 44.1 17.3 L 44.1 16.3 L 44.3 16.3 A 12.9 12.9 0 0 0 45.9 16.6 L 49 16.8 L 49.2 14.3 L 47.8 14.2 Q 46.9 14.1 46.2 14.1 L 46.1 14.1 L 46.2 13 L 46.3 13.1 A 12.5 12.5 0 0 0 47.8 13.3 L 49.3 13.4 L 49.5 11.3 L 46.7 11 A 81.5 81.5 0 0 1 45.4 12.7 A 4.5 4.5 0 0 0 44.7 12.4 L 44.4 12.3 A 8 8 0 0 0 46.8 8.2 A 2.5 2.5 0 0 1 48.2 8.8 Q 48.2 8.8 48 9 A 4.3 4.3 0 0 0 47.1 10.2 L 49.5 10.4 L 49.7 8.7 A 5.8 5.8 0 0 0 49.7 7.6 L 49.7 7.5 Q 50.9 7.6 51.1 7.8 A 0.3 0.3 0 0 1 51 7.9 A 1.7 1.7 0 0 0 50.6 8.9 Z M 80.7 8.9 L 82.4 8.6 A 20.5 20.5 0 0 0 84 8.4 A 1337 1337 0 0 1 84.3 13.3 A 140.3 140.3 0 0 1 84.4 15.6 A 2.2 2.2 0 0 1 82 17.3 A 2.7 2.7 0 0 0 81.3 16.2 A 5.7 5.7 0 0 0 82.3 16.2 A 2.3 2.3 0 0 0 83.2 15.9 A 0.1 0.1 0 0 0 83.2 15.9 Q 83.4 15.9 83.3 13.5 A 72.2 72.2 0 0 0 83.1 11.7 A 256.2 256.2 0 0 0 83 9.3 L 80.4 9.6 A 91.7 91.7 0 0 1 79.6 11.8 Q 79.1 11.6 78.7 11.6 L 79.2 15.7 A 14.2 14.2 0 0 0 79.4 17.2 L 78.4 17.4 Q 78.4 16.9 78.3 16.2 L 76 16.5 A 13.7 13.7 0 0 0 76.2 17.7 L 75.1 17.9 Q 75.1 17.4 75 16.3 L 74.4 11.3 Q 74.3 11.2 74.2 10.5 L 74.1 9.7 A 17.3 17.3 0 0 0 75.1 9.6 L 75.5 9.6 Q 75.5 8.8 75.4 7.3 A 1.9 1.9 0 0 1 76.7 7.4 A 0.1 0.1 0 0 1 76.7 7.5 A 0.3 0.3 0 0 1 76.6 7.7 Q 76.5 7.8 76.5 7.9 A 5.8 5.8 0 0 0 76.3 8.9 A 13.7 13.7 0 0 0 76.3 9.5 L 77 9.4 Q 77.4 9.4 78.4 9.2 Q 78.4 9.5 78.6 10.7 L 78.7 11.3 Q 79.9 9.5 80.1 6.6 A 2.9 2.9 0 0 1 81.4 6.9 A 0.1 0.1 0 0 1 81.3 7 A 0.4 0.4 0 0 0 81.1 7.3 A 6.7 6.7 0 0 0 80.7 8.9 Z M 106.5 0.8 L 107.4 0.1 A 9 9 0 0 1 108.3 1.3 L 110 0.8 A 26.1 26.1 0 0 0 111.7 0 L 112.1 0.9 A 25.4 25.4 0 0 1 111 1.3 L 110.3 1.5 L 104.5 3.5 L 104.9 4.7 L 106.6 4.1 A 9.6 9.6 0 0 0 106.2 3.1 A 9.3 9.3 0 0 1 106.6 3 A 1 1 0 0 1 107.3 2.9 Q 107.3 2.9 107.3 3.1 A 0.5 0.5 0 0 0 107.3 3.3 L 107.4 3.8 L 109.7 3 A 6.3 6.3 0 0 0 109.4 2 A 1.8 1.8 0 0 1 110.4 1.8 A 0 0 0 0 1 110.5 1.9 A 0.2 0.2 0 0 1 110.4 2 A 0.3 0.3 0 0 0 110.4 2.1 Q 110.4 2.4 110.5 2.7 L 111.1 2.5 A 15.1 15.1 0 0 0 112 2.2 L 112.7 2 L 112.9 2.8 A 37.8 37.8 0 0 0 111.3 3.3 L 110.8 3.4 L 111 4.2 A 4.4 4.4 0 0 0 111.5 5.1 A 46.2 46.2 0 0 0 110 5.6 L 108.6 6 A 10.8 10.8 0 0 0 107.4 6.5 A 9.9 9.9 0 0 0 107.1 5.4 L 106.8 4.8 L 105.1 5.4 A 16.9 16.9 0 0 1 105.9 8.5 Q 106.1 10.5 105.8 11.8 A 2.9 2.9 0 0 0 104.7 11.5 Q 105.2 9.7 105 8.4 A 18.9 18.9 0 0 0 104.2 5.6 A 93.5 93.5 0 0 0 103.2 2.9 A 16.4 16.4 0 0 0 104.4 2.6 A 5.1 5.1 0 0 0 105 2.4 L 107.4 1.6 A 10 10 0 0 0 106.7 1 A 2.3 2.3 0 0 1 106.5 0.8 Z M 66 9.3 L 66.1 11.1 L 68 11.1 A 10.5 10.5 0 0 0 69.5 10.9 L 69.6 10.9 L 69.7 12.1 L 69.6 12.1 A 11.1 11.1 0 0 0 68 12 L 66.1 12 L 66.1 13.6 L 67.3 13.6 A 5.9 5.9 0 0 0 68.6 13.5 A 6.9 6.9 0 0 0 68.5 14.9 L 68.5 16.5 A 96.2 96.2 0 0 0 68.6 18 L 68.7 18.4 L 67.5 18.4 A 2.7 2.7 0 0 0 67.6 17.5 L 63.9 17.5 A 3 3 0 0 0 64 18.5 L 62.8 18.5 L 62.8 18.3 A 9.6 9.6 0 0 0 62.9 16.9 L 62.8 15 A 5.8 5.8 0 0 0 62.7 13.6 A 6.5 6.5 0 0 0 64 13.6 L 65.1 13.6 L 65.1 12.1 L 63.5 12.1 A 9.3 9.3 0 0 0 62.1 12.3 L 61.9 12.3 L 61.9 11.1 L 62 11.1 A 9.7 9.7 0 0 0 63.5 11.2 L 65.1 11.1 L 65.1 9.5 A 149.3 149.3 0 0 1 62.7 9.9 A 4.7 4.7 0 0 0 62.2 9.1 L 62.1 8.9 A 20.4 20.4 0 0 0 62.5 8.9 A 18.4 18.4 0 0 0 68 7.9 A 3.7 3.7 0 0 1 68.6 9 L 68.5 9 A 2.3 2.3 0 0 0 68.1 9 A 2.3 2.3 0 0 0 67.8 9.1 A 7.4 7.4 0 0 0 67.1 9.2 Q 66.4 9.3 66 9.3 Z M 34.2 7.2 L 33.6 10 A 5.4 5.4 0 0 0 33.4 11.3 L 32.3 11.1 A 1.1 1.1 0 0 0 32.5 10.4 L 29.5 9.7 L 28.8 13 Q 28.5 13.8 29.3 14 A 1.6 1.6 0 0 0 29.4 14 L 31.4 14.5 A 1.2 1.2 0 0 0 32.8 13.2 Q 33.2 13.8 33.7 14.1 Q 33.7 14.2 33.7 14.3 A 1.4 1.4 0 0 1 32 15.4 A 1.7 1.7 0 0 1 32 15.4 L 28.6 14.6 Q 27.4 14.4 27.7 13.4 L 28.5 9.7 A 11.5 11.5 0 0 0 28.7 8.6 A 5.1 5.1 0 0 0 29.9 8.9 L 32.7 9.6 L 33.3 6.9 L 30.6 6.3 A 6.7 6.7 0 0 0 29.1 6.1 L 29.3 5 A 6.7 6.7 0 0 0 30.8 5.5 L 33.4 6.1 A 7.7 7.7 0 0 0 34.6 6.2 A 3.2 3.2 0 0 0 34.2 7.2 Z M 106.8 8.1 L 106.5 7.3 Q 106.9 7.2 108 6.8 L 110.2 6.1 A 31.7 31.7 0 0 0 112.2 5.3 A 0.1 0.1 0 0 1 112.3 5.4 Q 111.9 7.2 111 8.4 A 12.2 12.2 0 0 0 114.7 7.9 A 3.2 3.2 0 0 0 114.2 9.1 A 20.8 20.8 0 0 1 110.7 9.2 A 1.8 1.8 0 0 1 110.4 9.2 Q 109 10.4 107.4 11.3 A 1.4 1.4 0 0 1 107.2 11.2 A 2.8 2.8 0 0 0 106.3 10.7 Q 108.1 10.1 109.6 9 A 9.8 9.8 0 0 1 107.6 8.2 L 108.3 7.5 L 108.1 7.6 Q 107.8 7.7 107.4 7.9 L 106.8 8.1 Z M 98.8 10.2 L 99.3 12.5 A 4.3 4.3 0 0 0 100.2 12.2 L 100.2 12.2 L 100.4 13 A 12.7 12.7 0 0 0 99.1 13.2 L 93.4 14.6 A 12.6 12.6 0 0 0 92.2 14.9 A 5 5 0 0 0 92.4 14.8 Q 92.4 14.8 92.1 15 L 91.9 14.1 A 3.3 3.3 0 0 0 92.8 14 L 92.3 11.7 Q 92.2 11.1 92 10.5 L 92.1 10.5 A 6 6 0 0 0 93.1 10.4 L 97.4 9.4 A 7.2 7.2 0 0 0 98.6 9 L 98.6 9.2 A 5.5 5.5 0 0 0 98.8 10.2 Z M 16.5 2.4 L 14 9.7 A 0.4 0.4 0 0 1 13.9 9.9 A 2.3 2.3 0 0 1 11.5 9.8 A 2 2 0 0 0 11.4 8.5 A 7.7 7.7 0 0 0 12.3 8.8 Q 13 9.1 13.1 8.8 A 0.3 0.3 0 0 0 13.1 8.7 L 15.4 2.1 A 8 8 0 0 0 15.8 0.3 A 5.1 5.1 0 0 1 17.3 1 A 0.4 0.4 0 0 1 17.2 1.1 A 2.9 2.9 0 0 0 16.5 2.4 Z M 24.1 7.6 L 24.3 6.6 Q 24.4 6.8 25.6 7 L 26 7.1 A 5 5 0 0 0 27 7.3 L 27 7.4 Q 26.8 7.8 26.8 8.2 L 25.9 11.9 A 21.7 21.7 0 0 0 27.4 11 L 27.6 12.1 Q 26 12.8 25 13.4 L 24.5 12.4 A 1.3 1.3 0 0 0 25 11.6 L 25.8 7.9 L 25.4 7.8 Q 24.2 7.6 24.1 7.6 Z M 92.8 5.1 L 95.5 4.5 A 6.8 6.8 0 0 0 96.9 4.1 A 14.7 14.7 0 0 0 97.2 5.3 L 97.6 7.1 Q 97.7 7.7 97.9 8.2 L 97.9 8.3 Q 97.9 8.3 96.4 8.6 L 93.8 9.2 Q 93.1 9.4 92.4 9.6 L 92.3 9.6 A 16.4 16.4 0 0 0 92 8.2 L 91.6 6.4 A 10 10 0 0 0 91.4 5.6 L 91.3 5.4 A 9.7 9.7 0 0 0 92.8 5.1 Z M 12.5 2 Q 13.6 2.6 13.7 2.8 A 0.1 0.1 0 0 1 13.6 2.9 A 2.2 2.2 0 0 0 13 3.5 A 81.5 81.5 0 0 1 9.8 7.2 Q 9.3 6.6 8.6 6.4 A 11.4 11.4 0 0 0 12.5 2 Z M 17.1 4.1 L 18.2 3.9 A 41 41 0 0 1 19.1 9.5 L 17.7 9.6 Q 17.7 6.5 17.1 4.1 Z M 5.9 3 L 5.5 3.8 L 0 1.4 L 0.4 0.5 L 5.9 3 Z M 122.9 0.5 L 123.3 1.4 L 117.8 3.8 L 117.4 3 L 122.9 0.5 Z M 67.5 16.7 L 67.5 14.5 L 63.8 14.5 L 63.8 16.7 L 67.5 16.7 Z M 60.5 13.6 L 61.6 14 Q 61.5 14.7 61.2 15.6 A 30.6 30.6 0 0 1 60.8 17.5 A 1.6 1.6 0 0 0 60.7 18.2 A 1 1 0 0 1 60.6 18.6 A 0 0 0 0 1 60.6 18.6 A 4 4 0 0 1 59.5 17.8 Q 60.2 16.1 60.5 13.6 Z M 90.3 10.7 L 91.3 11.1 A 1295.5 1295.5 0 0 0 91.1 14.6 Q 91.1 14.9 91.1 15.3 A 0.4 0.4 0 0 1 91.1 15.6 L 89.9 15.1 A 18.7 18.7 0 0 0 90.3 10.7 Z M 96.2 5.1 L 92.5 6 L 92.7 7 L 96.4 6.1 L 96.2 5.1 Z M 77.5 10.1 L 75.2 10.4 L 75.5 12.8 L 77.8 12.5 L 77.5 10.1 Z M 96.6 6.8 L 92.9 7.6 L 93.1 8.6 L 96.8 7.8 L 96.6 6.8 Z M 77.9 13.2 L 75.6 13.5 L 75.9 15.8 L 78.2 15.5 L 77.9 13.2 Z M 38.7 15.8 L 38.1 15.7 L 38.2 14.4 L 39.5 14.6 L 39.3 15.8 A 1.6 1.6 0 0 1 37.8 17.3 L 37.9 16.7 A 0.9 0.9 0 0 0 38.7 15.8 Z M 97.8 10.1 L 96.8 10.4 L 97.4 12.9 L 98.4 12.7 L 97.8 10.1 Z M 96 10.5 L 95 10.8 L 95.6 13.3 L 96.6 13.1 L 96 10.5 Z M 94.7 13.5 L 94.1 11 L 93.1 11.2 L 93.7 13.8 L 94.7 13.5 Z M 88.4 6.4 L 88.9 5.4 A 48.2 48.2 0 0 1 91.2 6.4 L 90.7 7.5 A 11.1 11.1 0 0 0 88.4 6.4 Z M 88.3 9.2 L 88.8 8.2 A 17.5 17.5 0 0 1 91.1 8.9 L 90.6 10 A 9.1 9.1 0 0 0 88.3 9.2 Z M 26.1 4.1 L 27.2 3.8 A 17.8 17.8 0 0 1 27.9 6.1 L 26.7 6.3 A 6.4 6.4 0 0 0 26.1 4.1 Z M 110 3.7 L 107.7 4.5 L 108 5.5 L 110.3 4.7 L 110 3.7 Z M 108.3 7.5 A 5.3 5.3 0 0 0 110.2 8.3 A 4.7 4.7 0 0 0 111.1 6.6 L 108.3 7.5 Z M 80 12.2 L 80.7 11.6 A 15.5 15.5 0 0 1 81.9 13.2 A 2.1 2.1 0 0 1 82.2 13.6 L 81.4 14.2 A 10.2 10.2 0 0 0 80 12.2 Z M 59.5 9.1 L 60.2 8.2 A 20.8 20.8 0 0 1 62.1 9.4 L 61.5 10.3 A 8.9 8.9 0 0 0 59.5 9.1 Z M 59 12 L 59.5 11.1 Q 60.6 11.5 61.5 12.1 L 61 13.1 A 7.7 7.7 0 0 0 59 12 Z">
                        </path>
                    </g>
                </g>
            </g>
        </g>
    </mask>
</svg>